<svg width="70" height="70" viewBox="0 0 70 70" fill="none" xmlns="http://www.w3.org/2000/svg">
<rect width="70" height="70" rx="35" fill="#FFDB01"/>
<path d="M37.5949 22.265L40.2349 27.545C40.5949 28.28 41.5549 28.985 42.3649 29.12L47.1499 29.915C50.2099 30.425 50.9299 32.645 48.7249 34.835L45.0049 38.555C44.3749 39.185 44.0299 40.4 44.2249 41.27L45.2899 45.875C46.1299 49.52 44.1949 50.93 40.9699 49.025L36.4849 46.37C35.6749 45.89 34.3399 45.89 33.5149 46.37L29.0299 49.025C25.8199 50.93 23.8699 49.505 24.7099 45.875L25.7749 41.27C25.9699 40.4 25.6249 39.185 24.9949 38.555L21.2749 34.835C19.0849 32.645 19.7899 30.425 22.8499 29.915L27.6349 29.12C28.4299 28.985 29.3899 28.28 29.7499 27.545L32.3899 22.265C33.8299 19.4 36.1699 19.4 37.5949 22.265Z" stroke="black" stroke-width="2.5" stroke-linecap="round" stroke-linejoin="round"/>
</svg>
