<svg width="36" height="36" viewBox="0 0 36 36" fill="none" xmlns="http://www.w3.org/2000/svg">
<path d="M20.8832 3.85L23.8165 9.71667C24.2165 10.5333 25.2832 11.3167 26.1832 11.4667L31.4998 12.35C34.8998 12.9167 35.6998 15.3833 33.2498 17.8167L29.1165 21.95C28.4165 22.65 28.0332 24 28.2498 24.9667L29.4332 30.0833C30.3665 34.1333 28.2165 35.7 24.6332 33.5833L19.6498 30.6333C18.7498 30.1 17.2665 30.1 16.3498 30.6333L11.3665 33.5833C7.79985 35.7 5.63318 34.1167 6.56651 30.0833L7.74985 24.9667C7.96651 24 7.58318 22.65 6.88318 21.95L2.74985 17.8167C0.316515 15.3833 1.09985 12.9167 4.49985 12.35L9.81651 11.4667C10.6998 11.3167 11.7665 10.5333 12.1665 9.71667L15.0998 3.85C16.6998 0.666668 19.2998 0.666668 20.8832 3.85Z" stroke="white" stroke-width="2.5" stroke-linecap="round" stroke-linejoin="round"/>
</svg>
