<svg width="32" height="32" viewBox="0 0 32 32" fill="none" xmlns="http://www.w3.org/2000/svg">
<path d="M0 16C0 24.8366 7.16344 32 16 32C24.8366 32 32 24.8366 32 16C32 7.16344 24.8366 0 16 0C7.16344 0 0 7.16344 0 16Z" fill="#FFEB3B"/>
<g clip-path="url(#clip0_11_86)">
<mask id="path-2-inside-1_11_86" fill="white">
<path d="M8.31364 19.7012C10.4527 19.3491 11.4168 17.158 11.4558 17.065C11.4588 17.059 11.4608 17.053 11.4648 17.047C11.5738 16.825 11.5998 16.642 11.5398 16.503C11.4228 16.229 10.9748 16.087 10.6787 15.993C10.5927 15.966 10.5117 15.94 10.4447 15.914C10.1527 15.799 9.94471 15.674 9.80671 15.533C9.6427 15.364 9.6107 15.2019 9.6127 15.0969C9.6177 14.8409 9.81371 14.6129 10.1267 14.5019C10.2317 14.4589 10.3527 14.4359 10.4747 14.4359C10.5577 14.4359 10.6817 14.4469 10.7988 14.5019C11.0488 14.6189 11.2728 14.6829 11.4658 14.6919C11.5678 14.6869 11.6398 14.6649 11.6868 14.6439C11.6808 14.5439 11.6748 14.4409 11.6678 14.3349L11.6648 14.2889C11.5958 13.2059 11.5108 11.8588 11.8688 11.0588C12.1138 10.5107 12.4428 10.0397 12.8478 9.65769C13.1869 9.33767 13.5809 9.07766 14.0189 8.88565C14.7799 8.54964 15.49 8.49963 15.846 8.49963H15.847C15.861 8.49963 15.874 8.49963 15.886 8.49963C15.985 8.50063 16.146 8.50263 16.161 8.50263C16.516 8.50263 17.2271 8.55264 17.9901 8.88865C18.4271 9.08066 18.8191 9.33967 19.1571 9.65969C19.5602 10.0417 19.8882 10.5117 20.1322 11.0578C20.4902 11.8568 20.4052 13.2039 20.3372 14.2859V14.2879C20.3302 14.4039 20.3222 14.5249 20.3152 14.6429C20.3672 14.6659 20.4522 14.6919 20.5772 14.6919C20.7792 14.6919 21.0192 14.6279 21.2902 14.5009C21.3702 14.4639 21.4613 14.4449 21.5613 14.4449C21.7223 14.4449 21.8933 14.4919 22.0403 14.5789C22.2263 14.6879 22.3463 14.8409 22.3793 15.0119C22.4003 15.1239 22.3993 15.347 22.1513 15.573C22.0143 15.697 21.8143 15.812 21.5553 15.914C21.4873 15.941 21.4063 15.966 21.3212 15.993C21.0252 16.087 20.5762 16.229 20.4592 16.503C20.4002 16.642 20.4262 16.825 20.5352 17.047C20.5382 17.053 20.5412 17.059 20.5432 17.065C20.5712 17.129 20.8262 17.7041 21.3492 18.3111C21.6463 18.6561 21.9733 18.9451 22.3213 19.1691C22.7463 19.4431 23.2053 19.6212 23.6864 19.7002C23.8754 19.7312 24.0104 19.8992 23.9994 20.0902C23.9964 20.1452 23.9834 20.2002 23.9604 20.2532V20.2542C23.8834 20.4332 23.7064 20.5842 23.4183 20.7172C23.0663 20.8802 22.5403 21.0172 21.8533 21.1242C21.8183 21.1902 21.7823 21.3552 21.7573 21.4682C21.7313 21.5882 21.7043 21.7123 21.6653 21.8433C21.6233 21.9853 21.5153 22.1553 21.2362 22.1553C21.1302 22.1553 21.0092 22.1313 20.8682 22.1043C20.6622 22.0643 20.3802 22.0093 20.0292 22.0093C19.8342 22.0093 19.6322 22.0263 19.4292 22.0603C19.0371 22.1253 18.6991 22.3633 18.3081 22.6393C17.7361 23.0433 17.088 23.5003 16.098 23.5003C16.071 23.5003 16.044 23.4993 16.017 23.4973C15.985 23.4993 15.944 23.5003 15.902 23.5003C14.9119 23.5003 14.2639 23.0433 13.6919 22.6403L13.6909 22.6393C13.2999 22.3643 12.9619 22.1263 12.5698 22.0613C12.3668 22.0273 12.1648 22.0103 11.9698 22.0103C11.6338 22.0103 11.3678 22.0533 11.1308 22.0993C10.9758 22.1293 10.8558 22.1443 10.7628 22.1443H10.7538H10.7448C10.5407 22.1443 10.3907 22.0323 10.3337 21.8373C10.2957 21.7083 10.2687 21.5882 10.2417 21.4652C10.2187 21.3592 10.1807 21.1892 10.1467 21.1232C9.45969 21.0152 8.93367 20.8792 8.58165 20.7162C8.29464 20.5832 8.11763 20.4322 8.04062 20.2542C8.01762 20.2012 8.00362 20.1462 8.00062 20.0892C7.98962 19.9002 8.12463 19.7312 8.31364 19.7012Z"/>
</mask>
<path d="M8.31364 19.7012C10.4527 19.3491 11.4168 17.158 11.4558 17.065C11.4588 17.059 11.4608 17.053 11.4648 17.047C11.5738 16.825 11.5998 16.642 11.5398 16.503C11.4228 16.229 10.9748 16.087 10.6787 15.993C10.5927 15.966 10.5117 15.94 10.4447 15.914C10.1527 15.799 9.94471 15.674 9.80671 15.533C9.6427 15.364 9.6107 15.2019 9.6127 15.0969C9.6177 14.8409 9.81371 14.6129 10.1267 14.5019C10.2317 14.4589 10.3527 14.4359 10.4747 14.4359C10.5577 14.4359 10.6817 14.4469 10.7988 14.5019C11.0488 14.6189 11.2728 14.6829 11.4658 14.6919C11.5678 14.6869 11.6398 14.6649 11.6868 14.6439C11.6808 14.5439 11.6748 14.4409 11.6678 14.3349L11.6648 14.2889C11.5958 13.2059 11.5108 11.8588 11.8688 11.0588C12.1138 10.5107 12.4428 10.0397 12.8478 9.65769C13.1869 9.33767 13.5809 9.07766 14.0189 8.88565C14.7799 8.54964 15.49 8.49963 15.846 8.49963H15.847C15.861 8.49963 15.874 8.49963 15.886 8.49963C15.985 8.50063 16.146 8.50263 16.161 8.50263C16.516 8.50263 17.2271 8.55264 17.9901 8.88865C18.4271 9.08066 18.8191 9.33967 19.1571 9.65969C19.5602 10.0417 19.8882 10.5117 20.1322 11.0578C20.4902 11.8568 20.4052 13.2039 20.3372 14.2859V14.2879C20.3302 14.4039 20.3222 14.5249 20.3152 14.6429C20.3672 14.6659 20.4522 14.6919 20.5772 14.6919C20.7792 14.6919 21.0192 14.6279 21.2902 14.5009C21.3702 14.4639 21.4613 14.4449 21.5613 14.4449C21.7223 14.4449 21.8933 14.4919 22.0403 14.5789C22.2263 14.6879 22.3463 14.8409 22.3793 15.0119C22.4003 15.1239 22.3993 15.347 22.1513 15.573C22.0143 15.697 21.8143 15.812 21.5553 15.914C21.4873 15.941 21.4063 15.966 21.3212 15.993C21.0252 16.087 20.5762 16.229 20.4592 16.503C20.4002 16.642 20.4262 16.825 20.5352 17.047C20.5382 17.053 20.5412 17.059 20.5432 17.065C20.5712 17.129 20.8262 17.7041 21.3492 18.3111C21.6463 18.6561 21.9733 18.9451 22.3213 19.1691C22.7463 19.4431 23.2053 19.6212 23.6864 19.7002C23.8754 19.7312 24.0104 19.8992 23.9994 20.0902C23.9964 20.1452 23.9834 20.2002 23.9604 20.2532V20.2542C23.8834 20.4332 23.7064 20.5842 23.4183 20.7172C23.0663 20.8802 22.5403 21.0172 21.8533 21.1242C21.8183 21.1902 21.7823 21.3552 21.7573 21.4682C21.7313 21.5882 21.7043 21.7123 21.6653 21.8433C21.6233 21.9853 21.5153 22.1553 21.2362 22.1553C21.1302 22.1553 21.0092 22.1313 20.8682 22.1043C20.6622 22.0643 20.3802 22.0093 20.0292 22.0093C19.8342 22.0093 19.6322 22.0263 19.4292 22.0603C19.0371 22.1253 18.6991 22.3633 18.3081 22.6393C17.7361 23.0433 17.088 23.5003 16.098 23.5003C16.071 23.5003 16.044 23.4993 16.017 23.4973C15.985 23.4993 15.944 23.5003 15.902 23.5003C14.9119 23.5003 14.2639 23.0433 13.6919 22.6403L13.6909 22.6393C13.2999 22.3643 12.9619 22.1263 12.5698 22.0613C12.3668 22.0273 12.1648 22.0103 11.9698 22.0103C11.6338 22.0103 11.3678 22.0533 11.1308 22.0993C10.9758 22.1293 10.8558 22.1443 10.7628 22.1443H10.7538H10.7448C10.5407 22.1443 10.3907 22.0323 10.3337 21.8373C10.2957 21.7083 10.2687 21.5882 10.2417 21.4652C10.2187 21.3592 10.1807 21.1892 10.1467 21.1232C9.45969 21.0152 8.93367 20.8792 8.58165 20.7162C8.29464 20.5832 8.11763 20.4322 8.04062 20.2542C8.01762 20.2012 8.00362 20.1462 8.00062 20.0892C7.98962 19.9002 8.12463 19.7312 8.31364 19.7012Z" fill="white"/>
<path d="M8.31364 19.7012L8.34611 19.8985L8.34499 19.8987L8.31364 19.7012ZM11.4558 17.065L11.2709 16.9875L11.2769 16.9756L11.4558 17.065ZM11.4648 17.047L11.6443 17.1352L11.6385 17.147L11.6312 17.158L11.4648 17.047ZM11.5398 16.503L11.3562 16.5823L11.3559 16.5815L11.5398 16.503ZM10.6787 15.993L10.7387 15.8022L10.7393 15.8024L10.6787 15.993ZM10.4447 15.914L10.3724 16.1004L10.3714 16.1001L10.4447 15.914ZM9.80671 15.533L9.66377 15.6729L9.66318 15.6722L9.80671 15.533ZM9.6127 15.0969L9.41273 15.0931L9.41273 15.093L9.6127 15.0969ZM10.1267 14.5019L10.2026 14.6872L10.1936 14.6904L10.1267 14.5019ZM10.7988 14.5019L10.714 14.6831L10.7137 14.6829L10.7988 14.5019ZM11.4658 14.6919L11.4756 14.8917L11.466 14.8922L11.4565 14.8917L11.4658 14.6919ZM11.6868 14.6439L11.8864 14.6319L11.8947 14.7701L11.7684 14.8265L11.6868 14.6439ZM11.6678 14.3349L11.4682 14.3481L11.4682 14.3479L11.6678 14.3349ZM11.6648 14.2889L11.4652 14.3019L11.4652 14.3016L11.6648 14.2889ZM11.8688 11.0588L12.0514 11.1404L12.0514 11.1404L11.8688 11.0588ZM12.8478 9.65769L12.9851 9.80313L12.9851 9.80318L12.8478 9.65769ZM14.0189 8.88565L14.0997 9.06861L14.0992 9.06883L14.0189 8.88565ZM15.886 8.49963V8.29962L15.888 8.29964L15.886 8.49963ZM17.9901 8.88865L17.9096 9.07176L17.9095 9.07169L17.9901 8.88865ZM19.1571 9.65969L19.2946 9.51445L19.2947 9.51454L19.1571 9.65969ZM20.1322 11.0578L19.9497 11.1395L19.9496 11.1394L20.1322 11.0578ZM20.3372 14.2859H20.1368L20.1376 14.2734L20.3372 14.2859ZM20.3372 14.2879H20.5376L20.5368 14.3L20.3372 14.2879ZM20.3152 14.6429L20.2343 14.8258L20.1073 14.7697L20.1156 14.6311L20.3152 14.6429ZM21.2902 14.5009L21.2054 14.3198L21.2063 14.3194L21.2902 14.5009ZM22.0403 14.5789L21.9392 14.7515L21.9384 14.751L22.0403 14.5789ZM22.3793 15.0119L22.5757 14.974L22.5759 14.9751L22.3793 15.0119ZM22.1513 15.573L22.286 15.7208L22.2855 15.7212L22.1513 15.573ZM21.5553 15.914L21.4815 15.7281L21.482 15.7279L21.5553 15.914ZM21.3212 15.993L21.3818 16.1836L21.3818 16.1836L21.3212 15.993ZM20.4592 16.503L20.2751 16.4249L20.2753 16.4245L20.4592 16.503ZM20.5352 17.047L20.3563 17.1365L20.3557 17.1352L20.5352 17.047ZM20.5432 17.065L20.36 17.1452L20.3563 17.1369L20.3535 17.1283L20.5432 17.065ZM21.3492 18.3111L21.5008 18.1805L21.5008 18.1806L21.3492 18.3111ZM22.3213 19.1691L22.4295 19.001L22.4297 19.001L22.3213 19.1691ZM23.6864 19.7002L23.654 19.8975L23.6539 19.8975L23.6864 19.7002ZM23.9994 20.0902L23.7997 20.0793L23.7997 20.0787L23.9994 20.0902ZM23.9604 20.2532H23.7604V20.2117L23.7769 20.1736L23.9604 20.2532ZM23.9604 20.2542H24.1604V20.2954L24.1441 20.3332L23.9604 20.2542ZM23.4183 20.7172L23.3343 20.5357L23.3345 20.5356L23.4183 20.7172ZM21.8533 21.1242L21.6766 21.0305L21.7235 20.942L21.8225 20.9266L21.8533 21.1242ZM21.7573 21.4682L21.5618 21.4259L21.562 21.425L21.7573 21.4682ZM21.6653 21.8433L21.4735 21.7865L21.4736 21.7862L21.6653 21.8433ZM20.8682 22.1043L20.8306 22.3007L20.8301 22.3006L20.8682 22.1043ZM19.4292 22.0603L19.4622 22.2575L19.4619 22.2576L19.4292 22.0603ZM18.3081 22.6393L18.1927 22.4759L18.1928 22.4759L18.3081 22.6393ZM16.017 23.4973L16.0045 23.2977L16.0182 23.2969L16.0318 23.2979L16.017 23.4973ZM13.6919 22.6403L13.5767 22.8038L13.5627 22.7939L13.5505 22.7818L13.6919 22.6403ZM13.6909 22.6393L13.8059 22.4757L13.82 22.4856L13.8322 22.4978L13.6909 22.6393ZM12.5698 22.0613L12.5371 22.2586L12.5368 22.2585L12.5698 22.0613ZM11.1308 22.0993L11.1689 22.2956L11.1688 22.2956L11.1308 22.0993ZM10.3337 21.8373L10.5256 21.7807L10.5257 21.7811L10.3337 21.8373ZM10.2417 21.4652L10.0464 21.5081L10.0463 21.5077L10.2417 21.4652ZM10.1467 21.1232L10.1778 20.9257L10.278 20.9414L10.3245 21.0316L10.1467 21.1232ZM8.58165 20.7162L8.49761 20.8977L8.49756 20.8977L8.58165 20.7162ZM8.04062 20.2542L8.22409 20.1746L8.22418 20.1748L8.04062 20.2542ZM8.00062 20.0892L8.20029 20.0776L8.20035 20.0787L8.00062 20.0892ZM8.28116 19.5038C9.28743 19.3382 10.0243 18.739 10.5199 18.1564C11.0155 17.5738 11.2567 17.0227 11.2713 16.9877L11.6402 17.1424C11.6159 17.2004 11.3556 17.7913 10.8246 18.4156C10.2936 19.0397 9.47895 19.7121 8.34611 19.8985L8.28116 19.5038ZM11.2769 16.9756C11.2758 16.9779 11.2751 16.9794 11.2754 16.9788C11.2756 16.9783 11.2756 16.9782 11.2762 16.9769C11.2766 16.976 11.2773 16.9744 11.2781 16.9727C11.2813 16.9658 11.2879 16.9519 11.2984 16.9361L11.6312 17.158C11.6377 17.1482 11.6413 17.1403 11.6417 17.1394C11.6418 17.1391 11.6418 17.1391 11.6416 17.1396C11.6415 17.1398 11.6409 17.1413 11.6404 17.1423C11.6394 17.1447 11.6373 17.1492 11.6347 17.1545L11.2769 16.9756ZM11.2853 16.9589C11.385 16.7558 11.3814 16.6408 11.3562 16.5823L11.7234 16.4237C11.8182 16.6433 11.7626 16.8942 11.6443 17.1352L11.2853 16.9589ZM11.3559 16.5815C11.3267 16.5132 11.2414 16.4363 11.0872 16.3595C10.9398 16.2861 10.7687 16.2314 10.6182 16.1836L10.7393 15.8024C10.8848 15.8486 11.0857 15.9119 11.2656 16.0015C11.4386 16.0877 11.6359 16.2188 11.7237 16.4245L11.3559 16.5815ZM10.6188 16.1838C10.5335 16.157 10.4464 16.1292 10.3724 16.1004L10.5171 15.7275C10.5771 15.7508 10.652 15.775 10.7387 15.8022L10.6188 16.1838ZM10.3714 16.1001C10.0663 15.9799 9.8294 15.8421 9.66377 15.6729L9.94964 15.3931C10.06 15.5059 10.2391 15.618 10.518 15.7279L10.3714 16.1001ZM9.66318 15.6722C9.4592 15.4621 9.4098 15.2472 9.41273 15.0931L9.81266 15.1008C9.8116 15.1567 9.8262 15.2659 9.95024 15.3937L9.66318 15.6722ZM9.41273 15.093C9.41988 14.7274 9.69664 14.4422 10.0599 14.3134L10.1936 14.6904C9.93078 14.7836 9.81552 14.9545 9.81266 15.1008L9.41273 15.093ZM10.0509 14.3168C10.1817 14.2633 10.3286 14.2359 10.4747 14.2359V14.6359C10.3768 14.6359 10.2818 14.6545 10.2025 14.687L10.0509 14.3168ZM10.4747 14.2359C10.5721 14.2359 10.7293 14.2483 10.8838 14.3209L10.7137 14.6829C10.6342 14.6455 10.5433 14.6359 10.4747 14.6359V14.2359ZM10.8835 14.3208C11.1194 14.4312 11.317 14.4848 11.4751 14.4921L11.4565 14.8917C11.2285 14.8811 10.9781 14.8067 10.714 14.6831L10.8835 14.3208ZM11.456 14.4922C11.5332 14.4884 11.5809 14.4722 11.6052 14.4613L11.7684 14.8265C11.6987 14.8577 11.6024 14.8855 11.4756 14.8917L11.456 14.4922ZM11.4872 14.6559C11.4811 14.5554 11.4752 14.4533 11.4682 14.3481L11.8674 14.3217C11.8744 14.4285 11.8805 14.5324 11.8864 14.6319L11.4872 14.6559ZM11.4682 14.3479L11.4652 14.3019L11.8644 14.2759L11.8674 14.3219L11.4682 14.3479ZM11.4652 14.3016C11.4308 13.7617 11.3916 13.1451 11.4067 12.5625C11.4218 11.9839 11.4905 11.4144 11.6862 10.9771L12.0514 11.1404C11.889 11.5032 11.8213 12.0072 11.8066 12.5729C11.792 13.1346 11.8298 13.7331 11.8644 14.2762L11.4652 14.3016ZM11.6862 10.9771C11.9411 10.407 12.2849 9.9137 12.7106 9.5122L12.9851 9.80318C12.6007 10.1657 12.2865 10.6145 12.0514 11.1404L11.6862 10.9771ZM12.7106 9.51225C13.0666 9.17613 13.48 8.9035 13.9386 8.70248L14.0992 9.06883C13.6817 9.25182 13.3071 9.49921 12.9851 9.80313L12.7106 9.51225ZM13.9381 8.70269C14.7332 8.35166 15.4733 8.29963 15.846 8.29963V8.69963C15.5066 8.69963 14.8267 8.74761 14.0997 9.06861L13.9381 8.70269ZM15.846 8.29963H15.847V8.69963H15.846V8.29963ZM15.847 8.29963C15.847 8.29963 15.847 8.29963 15.8471 8.29963C15.8471 8.29963 15.8471 8.29963 15.8472 8.29963C15.8472 8.29963 15.8472 8.29963 15.8472 8.29963C15.8473 8.29963 15.8473 8.29963 15.8473 8.29963C15.8473 8.29963 15.8474 8.29963 15.8474 8.29963C15.8474 8.29963 15.8475 8.29963 15.8475 8.29963C15.8475 8.29963 15.8475 8.29963 15.8476 8.29963C15.8476 8.29963 15.8476 8.29963 15.8476 8.29963C15.8477 8.29963 15.8477 8.29963 15.8477 8.29963C15.8478 8.29963 15.8478 8.29963 15.8478 8.29963C15.8478 8.29963 15.8479 8.29963 15.8479 8.29963C15.8479 8.29963 15.8479 8.29963 15.848 8.29963C15.848 8.29963 15.848 8.29963 15.8481 8.29963C15.8481 8.29963 15.8481 8.29963 15.8481 8.29963C15.8482 8.29963 15.8482 8.29963 15.8482 8.29963C15.8482 8.29963 15.8483 8.29963 15.8483 8.29963C15.8483 8.29963 15.8484 8.29963 15.8484 8.29963C15.8484 8.29963 15.8484 8.29963 15.8485 8.29963C15.8485 8.29963 15.8485 8.29963 15.8485 8.29963C15.8486 8.29963 15.8486 8.29963 15.8486 8.29963C15.8487 8.29963 15.8487 8.29963 15.8487 8.29963C15.8487 8.29963 15.8488 8.29963 15.8488 8.29963C15.8488 8.29963 15.8488 8.29963 15.8489 8.29963C15.8489 8.29963 15.8489 8.29963 15.849 8.29963C15.849 8.29963 15.849 8.29963 15.849 8.29963C15.8491 8.29963 15.8491 8.29963 15.8491 8.29963C15.8491 8.29963 15.8492 8.29963 15.8492 8.29963C15.8492 8.29963 15.8493 8.29963 15.8493 8.29963C15.8493 8.29963 15.8493 8.29963 15.8494 8.29963C15.8494 8.29963 15.8494 8.29963 15.8494 8.29963C15.8495 8.29963 15.8495 8.29963 15.8495 8.29963C15.8495 8.29963 15.8496 8.29963 15.8496 8.29963C15.8496 8.29963 15.8497 8.29963 15.8497 8.29963C15.8497 8.29963 15.8497 8.29963 15.8498 8.29963C15.8498 8.29963 15.8498 8.29963 15.8498 8.29963C15.8499 8.29963 15.8499 8.29963 15.8499 8.29963C15.85 8.29963 15.85 8.29963 15.85 8.29963C15.85 8.29963 15.8501 8.29963 15.8501 8.29963C15.8501 8.29963 15.8501 8.29963 15.8502 8.29963C15.8502 8.29963 15.8502 8.29963 15.8503 8.29963C15.8503 8.29963 15.8503 8.29963 15.8503 8.29963C15.8504 8.29963 15.8504 8.29963 15.8504 8.29963C15.8504 8.29963 15.8505 8.29963 15.8505 8.29963C15.8505 8.29963 15.8506 8.29963 15.8506 8.29963C15.8506 8.29963 15.8506 8.29963 15.8507 8.29963C15.8507 8.29963 15.8507 8.29963 15.8507 8.29963C15.8508 8.29963 15.8508 8.29963 15.8508 8.29963C15.8508 8.29963 15.8509 8.29963 15.8509 8.29963C15.8509 8.29963 15.851 8.29963 15.851 8.29963C15.851 8.29963 15.851 8.29963 15.8511 8.29963C15.8511 8.29963 15.8511 8.29963 15.8511 8.29963C15.8512 8.29963 15.8512 8.29963 15.8512 8.29963C15.8513 8.29963 15.8513 8.29963 15.8513 8.29963C15.8513 8.29963 15.8514 8.29963 15.8514 8.29963C15.8514 8.29963 15.8514 8.29963 15.8515 8.29963C15.8515 8.29963 15.8515 8.29963 15.8515 8.29963C15.8516 8.29963 15.8516 8.29963 15.8516 8.29963C15.8517 8.29963 15.8517 8.29963 15.8517 8.29963C15.8517 8.29963 15.8518 8.29963 15.8518 8.29963C15.8518 8.29963 15.8518 8.29963 15.8519 8.29963C15.8519 8.29963 15.8519 8.29963 15.852 8.29963C15.852 8.29963 15.852 8.29963 15.852 8.29963C15.8521 8.29963 15.8521 8.29963 15.8521 8.29963C15.8521 8.29963 15.8522 8.29963 15.8522 8.29963C15.8522 8.29963 15.8522 8.29963 15.8523 8.29963C15.8523 8.29963 15.8523 8.29963 15.8524 8.29963C15.8524 8.29963 15.8524 8.29963 15.8524 8.29963C15.8525 8.29963 15.8525 8.29963 15.8525 8.29963C15.8525 8.29963 15.8526 8.29963 15.8526 8.29963C15.8526 8.29963 15.8526 8.29963 15.8527 8.29963C15.8527 8.29963 15.8527 8.29963 15.8528 8.29963C15.8528 8.29963 15.8528 8.29963 15.8528 8.29963C15.8529 8.29963 15.8529 8.29963 15.8529 8.29963C15.8529 8.29963 15.853 8.29963 15.853 8.29963C15.853 8.29963 15.8531 8.29963 15.8531 8.29963C15.8531 8.29963 15.8531 8.29963 15.8532 8.29963C15.8532 8.29963 15.8532 8.29963 15.8532 8.29963C15.8533 8.29963 15.8533 8.29963 15.8533 8.29963C15.8533 8.29963 15.8534 8.29963 15.8534 8.29963C15.8534 8.29963 15.8535 8.29963 15.8535 8.29963C15.8535 8.29963 15.8535 8.29963 15.8536 8.29963C15.8536 8.29963 15.8536 8.29963 15.8536 8.29963C15.8537 8.29963 15.8537 8.29963 15.8537 8.29963C15.8537 8.29963 15.8538 8.29963 15.8538 8.29963C15.8538 8.29963 15.8539 8.29963 15.8539 8.29963C15.8539 8.29963 15.8539 8.29963 15.854 8.29963C15.854 8.29963 15.854 8.29963 15.854 8.29963C15.8541 8.29963 15.8541 8.29963 15.8541 8.29963C15.8541 8.29963 15.8542 8.29963 15.8542 8.29963C15.8542 8.29963 15.8543 8.29963 15.8543 8.29963C15.8543 8.29963 15.8543 8.29963 15.8544 8.29963C15.8544 8.29963 15.8544 8.29963 15.8544 8.29963C15.8545 8.29963 15.8545 8.29963 15.8545 8.29963C15.8545 8.29963 15.8546 8.29963 15.8546 8.29963C15.8546 8.29963 15.8547 8.29963 15.8547 8.29963C15.8547 8.29963 15.8547 8.29963 15.8548 8.29963C15.8548 8.29963 15.8548 8.29963 15.8548 8.29963C15.8549 8.29963 15.8549 8.29963 15.8549 8.29963C15.8549 8.29963 15.855 8.29963 15.855 8.29963C15.855 8.29963 15.8551 8.29963 15.8551 8.29963C15.8551 8.29963 15.8551 8.29963 15.8552 8.29963C15.8552 8.29963 15.8552 8.29963 15.8552 8.29963C15.8553 8.29963 15.8553 8.29963 15.8553 8.29963C15.8553 8.29963 15.8554 8.29963 15.8554 8.29963C15.8554 8.29963 15.8555 8.29963 15.8555 8.29963C15.8555 8.29963 15.8555 8.29963 15.8556 8.29963C15.8556 8.29963 15.8556 8.29963 15.8556 8.29963C15.8557 8.29963 15.8557 8.29963 15.8557 8.29963C15.8557 8.29963 15.8558 8.29963 15.8558 8.29963C15.8558 8.29963 15.8558 8.29963 15.8559 8.29963C15.8559 8.29963 15.8559 8.29963 15.856 8.29963C15.856 8.29963 15.856 8.29963 15.856 8.29963C15.8561 8.29963 15.8561 8.29963 15.8561 8.29963C15.8561 8.29963 15.8562 8.29963 15.8562 8.29963C15.8562 8.29963 15.8562 8.29963 15.8563 8.29963C15.8563 8.29963 15.8563 8.29963 15.8564 8.29963C15.8564 8.29963 15.8564 8.29963 15.8564 8.29963C15.8565 8.29963 15.8565 8.29963 15.8565 8.29963C15.8565 8.29963 15.8566 8.29963 15.8566 8.29963C15.8566 8.29963 15.8566 8.29963 15.8567 8.29963C15.8567 8.29963 15.8567 8.29963 15.8567 8.29963C15.8568 8.29963 15.8568 8.29963 15.8568 8.29963C15.8569 8.29963 15.8569 8.29963 15.8569 8.29963C15.8569 8.29963 15.857 8.29963 15.857 8.29963C15.857 8.29963 15.857 8.29963 15.8571 8.29963C15.8571 8.29963 15.8571 8.29963 15.8571 8.29963C15.8572 8.29963 15.8572 8.29963 15.8572 8.29963C15.8573 8.29963 15.8573 8.29963 15.8573 8.29963C15.8573 8.29963 15.8574 8.29963 15.8574 8.29963C15.8574 8.29963 15.8574 8.29963 15.8575 8.29963C15.8575 8.29963 15.8575 8.29963 15.8575 8.29963C15.8576 8.29963 15.8576 8.29963 15.8576 8.29963C15.8576 8.29963 15.8577 8.29963 15.8577 8.29963C15.8577 8.29963 15.8578 8.29963 15.8578 8.29963C15.8578 8.29963 15.8578 8.29963 15.8579 8.29963C15.8579 8.29963 15.8579 8.29963 15.8579 8.29963C15.858 8.29963 15.858 8.29963 15.858 8.29963C15.858 8.29963 15.8581 8.29963 15.8581 8.29963C15.8581 8.29963 15.8581 8.29963 15.8582 8.29963C15.8582 8.29963 15.8582 8.29963 15.8583 8.29963C15.8583 8.29963 15.8583 8.29963 15.8583 8.29963C15.8584 8.29963 15.8584 8.29963 15.8584 8.29963C15.8584 8.29963 15.8585 8.29963 15.8585 8.29963C15.8585 8.29963 15.8585 8.29963 15.8586 8.29963C15.8586 8.29963 15.8586 8.29963 15.8586 8.29963C15.8587 8.29963 15.8587 8.29963 15.8587 8.29963C15.8587 8.29963 15.8588 8.29963 15.8588 8.29963C15.8588 8.29963 15.8589 8.29963 15.8589 8.29963C15.8589 8.29963 15.8589 8.29963 15.859 8.29963C15.859 8.29963 15.859 8.29963 15.859 8.29963C15.8591 8.29963 15.8591 8.29963 15.8591 8.29963C15.8591 8.29963 15.8592 8.29963 15.8592 8.29963C15.8592 8.29963 15.8592 8.29963 15.8593 8.29963C15.8593 8.29963 15.8593 8.29963 15.8594 8.29963C15.8594 8.29963 15.8594 8.29963 15.8594 8.29963C15.8595 8.29963 15.8595 8.29963 15.8595 8.29963C15.8595 8.29963 15.8596 8.29963 15.8596 8.29963C15.8596 8.29963 15.8596 8.29963 15.8597 8.29963C15.8597 8.29963 15.8597 8.29963 15.8597 8.29963C15.8598 8.29963 15.8598 8.29963 15.8598 8.29963C15.8598 8.29963 15.8599 8.29963 15.8599 8.29963C15.8599 8.29963 15.86 8.29963 15.86 8.29963C15.86 8.29963 15.86 8.29963 15.8601 8.29963C15.8601 8.29963 15.8601 8.29963 15.8601 8.29963C15.8602 8.29963 15.8602 8.29963 15.8602 8.29963C15.8602 8.29963 15.8603 8.29963 15.8603 8.29963C15.8603 8.29963 15.8603 8.29963 15.8604 8.29963C15.8604 8.29963 15.8604 8.29963 15.8604 8.29963C15.8605 8.29963 15.8605 8.29963 15.8605 8.29963C15.8606 8.29963 15.8606 8.29963 15.8606 8.29963C15.8606 8.29963 15.8607 8.29963 15.8607 8.29963C15.8607 8.29963 15.8607 8.29963 15.8608 8.29963C15.8608 8.29963 15.8608 8.29963 15.8608 8.29963C15.8609 8.29963 15.8609 8.29963 15.8609 8.29963C15.8609 8.29963 15.861 8.29963 15.861 8.29963C15.861 8.29963 15.861 8.29963 15.8611 8.29963C15.8611 8.29963 15.8611 8.29963 15.8612 8.29963C15.8612 8.29963 15.8612 8.29963 15.8612 8.29963C15.8613 8.29963 15.8613 8.29963 15.8613 8.29963C15.8613 8.29963 15.8614 8.29963 15.8614 8.29963C15.8614 8.29963 15.8614 8.29963 15.8615 8.29963C15.8615 8.29963 15.8615 8.29963 15.8615 8.29963C15.8616 8.29963 15.8616 8.29963 15.8616 8.29963C15.8616 8.29963 15.8617 8.29963 15.8617 8.29963C15.8617 8.29963 15.8617 8.29963 15.8618 8.29963C15.8618 8.29963 15.8618 8.29963 15.8619 8.29963C15.8619 8.29963 15.8619 8.29963 15.8619 8.29963C15.862 8.29963 15.862 8.29963 15.862 8.29963C15.862 8.29963 15.8621 8.29963 15.8621 8.29963C15.8621 8.29963 15.8621 8.29963 15.8622 8.29963C15.8622 8.29963 15.8622 8.29963 15.8622 8.29963C15.8623 8.29963 15.8623 8.29963 15.8623 8.29963C15.8623 8.29963 15.8624 8.29963 15.8624 8.29963C15.8624 8.29963 15.8624 8.29963 15.8625 8.29963C15.8625 8.29963 15.8625 8.29963 15.8626 8.29963C15.8626 8.29963 15.8626 8.29963 15.8626 8.29963C15.8627 8.29963 15.8627 8.29963 15.8627 8.29963C15.8627 8.29963 15.8628 8.29963 15.8628 8.29963C15.8628 8.29963 15.8628 8.29963 15.8629 8.29963C15.8629 8.29963 15.8629 8.29963 15.8629 8.29963C15.863 8.29963 15.863 8.29963 15.863 8.29963C15.863 8.29963 15.8631 8.29963 15.8631 8.29963C15.8631 8.29963 15.8631 8.29963 15.8632 8.29963C15.8632 8.29963 15.8632 8.29963 15.8632 8.29963C15.8633 8.29963 15.8633 8.29963 15.8633 8.29963C15.8634 8.29963 15.8634 8.29963 15.8634 8.29963C15.8634 8.29963 15.8635 8.29963 15.8635 8.29963C15.8635 8.29963 15.8635 8.29963 15.8636 8.29963C15.8636 8.29963 15.8636 8.29963 15.8636 8.29963C15.8637 8.29963 15.8637 8.29963 15.8637 8.29963C15.8637 8.29963 15.8638 8.29963 15.8638 8.29963C15.8638 8.29963 15.8638 8.29963 15.8639 8.29963C15.8639 8.29963 15.8639 8.29963 15.8639 8.29963C15.864 8.29963 15.864 8.29963 15.864 8.29963C15.864 8.29963 15.8641 8.29963 15.8641 8.29963C15.8641 8.29963 15.8642 8.29963 15.8642 8.29963C15.8642 8.29963 15.8642 8.29963 15.8643 8.29963C15.8643 8.29963 15.8643 8.29963 15.8643 8.29963C15.8644 8.29963 15.8644 8.29963 15.8644 8.29963C15.8644 8.29963 15.8645 8.29963 15.8645 8.29963C15.8645 8.29963 15.8645 8.29963 15.8646 8.29963C15.8646 8.29963 15.8646 8.29963 15.8646 8.29963C15.8647 8.29963 15.8647 8.29963 15.8647 8.29963C15.8647 8.29963 15.8648 8.29963 15.8648 8.29963C15.8648 8.29963 15.8648 8.29963 15.8649 8.29963C15.8649 8.29963 15.8649 8.29963 15.8649 8.29963C15.865 8.29963 15.865 8.29963 15.865 8.29963C15.865 8.29963 15.8651 8.29963 15.8651 8.29963C15.8651 8.29963 15.8652 8.29963 15.8652 8.29963C15.8652 8.29963 15.8652 8.29963 15.8653 8.29963C15.8653 8.29963 15.8653 8.29963 15.8653 8.29963C15.8654 8.29963 15.8654 8.29963 15.8654 8.29963C15.8654 8.29963 15.8655 8.29963 15.8655 8.29963C15.8655 8.29963 15.8655 8.29963 15.8656 8.29963C15.8656 8.29963 15.8656 8.29963 15.8656 8.29963C15.8657 8.29963 15.8657 8.29963 15.8657 8.29963C15.8657 8.29963 15.8658 8.29963 15.8658 8.29963C15.8658 8.29963 15.8658 8.29963 15.8659 8.29963C15.8659 8.29963 15.8659 8.29963 15.8659 8.29963C15.866 8.29963 15.866 8.29963 15.866 8.29963C15.866 8.29963 15.8661 8.29963 15.8661 8.29963C15.8661 8.29963 15.8661 8.29963 15.8662 8.29963C15.8662 8.29963 15.8662 8.29963 15.8662 8.29963C15.8663 8.29963 15.8663 8.29963 15.8663 8.29963C15.8664 8.29963 15.8664 8.29963 15.8664 8.29963C15.8664 8.29963 15.8665 8.29963 15.8665 8.29963C15.8665 8.29963 15.8665 8.29963 15.8666 8.29963C15.8666 8.29963 15.8666 8.29963 15.8666 8.29963C15.8667 8.29963 15.8667 8.29963 15.8667 8.29963C15.8667 8.29963 15.8668 8.29963 15.8668 8.29963C15.8668 8.29963 15.8668 8.29963 15.8669 8.29963C15.8669 8.29963 15.8669 8.29963 15.8669 8.29963C15.867 8.29963 15.867 8.29963 15.867 8.29963C15.867 8.29963 15.8671 8.29963 15.8671 8.29963C15.8671 8.29963 15.8671 8.29963 15.8672 8.29963C15.8672 8.29963 15.8672 8.29963 15.8672 8.29963C15.8673 8.29963 15.8673 8.29963 15.8673 8.29963C15.8673 8.29963 15.8674 8.29963 15.8674 8.29963C15.8674 8.29963 15.8674 8.29963 15.8675 8.29963C15.8675 8.29963 15.8675 8.29963 15.8675 8.29963C15.8676 8.29963 15.8676 8.29963 15.8676 8.29963C15.8676 8.29963 15.8677 8.29963 15.8677 8.29963C15.8677 8.29963 15.8677 8.29963 15.8678 8.29963C15.8678 8.29963 15.8678 8.29963 15.8679 8.29963C15.8679 8.29963 15.8679 8.29963 15.8679 8.29963C15.868 8.29963 15.868 8.29963 15.868 8.29963C15.868 8.29963 15.8681 8.29963 15.8681 8.29963C15.8681 8.29963 15.8681 8.29963 15.8682 8.29963C15.8682 8.29963 15.8682 8.29963 15.8682 8.29963C15.8683 8.29963 15.8683 8.29963 15.8683 8.29963C15.8683 8.29963 15.8684 8.29963 15.8684 8.29963C15.8684 8.29963 15.8684 8.29963 15.8685 8.29963C15.8685 8.29963 15.8685 8.29963 15.8685 8.29963C15.8686 8.29963 15.8686 8.29963 15.8686 8.29963C15.8686 8.29963 15.8687 8.29963 15.8687 8.29963C15.8687 8.29963 15.8687 8.29963 15.8688 8.29963C15.8688 8.29963 15.8688 8.29963 15.8688 8.29963C15.8689 8.29963 15.8689 8.29963 15.8689 8.29963C15.8689 8.29963 15.869 8.29963 15.869 8.29963C15.869 8.29963 15.869 8.29963 15.8691 8.29963C15.8691 8.29963 15.8691 8.29963 15.8691 8.29963C15.8692 8.29963 15.8692 8.29963 15.8692 8.29963C15.8692 8.29963 15.8693 8.29963 15.8693 8.29963C15.8693 8.29963 15.8693 8.29963 15.8694 8.29963C15.8694 8.29963 15.8694 8.29963 15.8694 8.29963C15.8695 8.29963 15.8695 8.29963 15.8695 8.29963C15.8695 8.29963 15.8696 8.29963 15.8696 8.29963C15.8696 8.29963 15.8696 8.29963 15.8697 8.29963C15.8697 8.29963 15.8697 8.29963 15.8697 8.29963C15.8698 8.29963 15.8698 8.29963 15.8698 8.29963C15.8698 8.29963 15.8699 8.29963 15.8699 8.29963C15.8699 8.29963 15.8699 8.29963 15.87 8.29963C15.87 8.29963 15.87 8.29963 15.87 8.29963C15.8701 8.29963 15.8701 8.29963 15.8701 8.29963C15.8701 8.29963 15.8702 8.29963 15.8702 8.29963C15.8702 8.29963 15.8702 8.29963 15.8703 8.29963C15.8703 8.29963 15.8703 8.29963 15.8703 8.29963C15.8704 8.29963 15.8704 8.29963 15.8704 8.29963C15.8704 8.29963 15.8705 8.29963 15.8705 8.29963C15.8705 8.29963 15.8705 8.29963 15.8706 8.29963C15.8706 8.29963 15.8706 8.29963 15.8706 8.29963C15.8707 8.29963 15.8707 8.29963 15.8707 8.29963C15.8707 8.29963 15.8708 8.29963 15.8708 8.29963C15.8708 8.29963 15.8708 8.29963 15.8709 8.29963C15.8709 8.29963 15.8709 8.29963 15.8709 8.29963C15.871 8.29963 15.871 8.29963 15.871 8.29963C15.871 8.29963 15.8711 8.29963 15.8711 8.29963C15.8711 8.29963 15.8711 8.29963 15.8712 8.29963C15.8712 8.29963 15.8712 8.29963 15.8712 8.29963C15.8713 8.29963 15.8713 8.29963 15.8713 8.29963C15.8713 8.29963 15.8714 8.29963 15.8714 8.29963C15.8714 8.29963 15.8714 8.29963 15.8715 8.29963C15.8715 8.29963 15.8715 8.29963 15.8715 8.29963C15.8716 8.29963 15.8716 8.29963 15.8716 8.29963C15.8716 8.29963 15.8717 8.29963 15.8717 8.29963C15.8717 8.29963 15.8717 8.29963 15.8718 8.29963C15.8718 8.29963 15.8718 8.29963 15.8718 8.29963C15.8719 8.29963 15.8719 8.29963 15.8719 8.29963C15.8719 8.29963 15.872 8.29963 15.872 8.29963C15.872 8.29963 15.872 8.29963 15.8721 8.29963C15.8721 8.29963 15.8721 8.29963 15.8721 8.29963C15.8722 8.29963 15.8722 8.29963 15.8722 8.29963C15.8722 8.29963 15.8723 8.29963 15.8723 8.29963C15.8723 8.29963 15.8723 8.29963 15.8724 8.29963C15.8724 8.29963 15.8724 8.29963 15.8724 8.29963C15.8725 8.29963 15.8725 8.29963 15.8725 8.29963C15.8725 8.29963 15.8726 8.29963 15.8726 8.29963C15.8726 8.29963 15.8726 8.29963 15.8727 8.29963C15.8727 8.29963 15.8727 8.29963 15.8727 8.29963C15.8728 8.29963 15.8728 8.29963 15.8728 8.29963C15.8728 8.29963 15.8729 8.29963 15.8729 8.29963C15.8729 8.29963 15.8729 8.29963 15.873 8.29963C15.873 8.29963 15.873 8.29963 15.873 8.29963C15.8731 8.29963 15.8731 8.29963 15.8731 8.29963C15.8731 8.29963 15.8732 8.29963 15.8732 8.29963C15.8732 8.29963 15.8732 8.29963 15.8733 8.29963C15.8733 8.29963 15.8733 8.29963 15.8733 8.29963C15.8734 8.29963 15.8734 8.29963 15.8734 8.29963C15.8734 8.29963 15.8735 8.29963 15.8735 8.29963C15.8735 8.29963 15.8735 8.29963 15.8736 8.29963C15.8736 8.29963 15.8736 8.29963 15.8736 8.29963C15.8737 8.29963 15.8737 8.29963 15.8737 8.29963C15.8737 8.29963 15.8738 8.29963 15.8738 8.29963C15.8738 8.29963 15.8738 8.29963 15.8739 8.29963C15.8739 8.29963 15.8739 8.29963 15.8739 8.29963C15.874 8.29963 15.874 8.29963 15.874 8.29963C15.874 8.29963 15.8741 8.29963 15.8741 8.29963C15.8741 8.29963 15.8741 8.29963 15.8742 8.29963C15.8742 8.29963 15.8742 8.29963 15.8742 8.29963C15.8743 8.29963 15.8743 8.29963 15.8743 8.29963C15.8743 8.29963 15.8744 8.29963 15.8744 8.29963C15.8744 8.29963 15.8744 8.29963 15.8744 8.29963C15.8745 8.29963 15.8745 8.29963 15.8745 8.29963C15.8745 8.29963 15.8746 8.29963 15.8746 8.29963C15.8746 8.29963 15.8746 8.29963 15.8747 8.29963C15.8747 8.29963 15.8747 8.29963 15.8747 8.29963C15.8748 8.29963 15.8748 8.29963 15.8748 8.29963C15.8748 8.29963 15.8749 8.29963 15.8749 8.29963C15.8749 8.29963 15.8749 8.29963 15.875 8.29963C15.875 8.29963 15.875 8.29963 15.875 8.29963C15.8751 8.29963 15.8751 8.29963 15.8751 8.29963C15.8751 8.29963 15.8752 8.29963 15.8752 8.29963C15.8752 8.29963 15.8752 8.29963 15.8753 8.29963C15.8753 8.29963 15.8753 8.29963 15.8753 8.29963C15.8754 8.29963 15.8754 8.29963 15.8754 8.29963C15.8754 8.29963 15.8755 8.29963 15.8755 8.29963C15.8755 8.29963 15.8755 8.29963 15.8756 8.29963C15.8756 8.29963 15.8756 8.29963 15.8756 8.29963C15.8757 8.29963 15.8757 8.29963 15.8757 8.29963C15.8757 8.29963 15.8758 8.29963 15.8758 8.29963C15.8758 8.29963 15.8758 8.29963 15.8759 8.29963C15.8759 8.29963 15.8759 8.29963 15.8759 8.29963C15.8759 8.29963 15.876 8.29963 15.876 8.29963C15.876 8.29963 15.876 8.29963 15.8761 8.29963C15.8761 8.29963 15.8761 8.29963 15.8761 8.29963C15.8762 8.29963 15.8762 8.29963 15.8762 8.29963C15.8762 8.29963 15.8763 8.29963 15.8763 8.29963C15.8763 8.29963 15.8763 8.29963 15.8764 8.29963C15.8764 8.29963 15.8764 8.29963 15.8764 8.29963C15.8765 8.29963 15.8765 8.29963 15.8765 8.29963C15.8765 8.29963 15.8766 8.29963 15.8766 8.29963C15.8766 8.29963 15.8766 8.29963 15.8767 8.29963C15.8767 8.29963 15.8767 8.29963 15.8767 8.29963C15.8768 8.29963 15.8768 8.29963 15.8768 8.29963C15.8768 8.29963 15.8769 8.29963 15.8769 8.29963C15.8769 8.29963 15.8769 8.29963 15.877 8.29963C15.877 8.29963 15.877 8.29963 15.877 8.29963C15.877 8.29963 15.8771 8.29963 15.8771 8.29963C15.8771 8.29963 15.8771 8.29963 15.8772 8.29963C15.8772 8.29963 15.8772 8.29963 15.8772 8.29963C15.8773 8.29963 15.8773 8.29963 15.8773 8.29963C15.8773 8.29963 15.8774 8.29963 15.8774 8.29963C15.8774 8.29963 15.8774 8.29963 15.8775 8.29963C15.8775 8.29963 15.8775 8.29963 15.8775 8.29963C15.8776 8.29963 15.8776 8.29963 15.8776 8.29963C15.8776 8.29963 15.8777 8.29963 15.8777 8.29963C15.8777 8.29963 15.8777 8.29963 15.8778 8.29963C15.8778 8.29963 15.8778 8.29963 15.8778 8.29963C15.8779 8.29963 15.8779 8.29963 15.8779 8.29963C15.8779 8.29963 15.8779 8.29963 15.878 8.29963C15.878 8.29963 15.878 8.29963 15.878 8.29963C15.8781 8.29963 15.8781 8.29963 15.8781 8.29963C15.8781 8.29963 15.8782 8.29963 15.8782 8.29963C15.8782 8.29963 15.8782 8.29963 15.8783 8.29963C15.8783 8.29963 15.8783 8.29963 15.8783 8.29963C15.8784 8.29963 15.8784 8.29963 15.8784 8.29963C15.8784 8.29963 15.8785 8.29963 15.8785 8.29963C15.8785 8.29963 15.8785 8.29963 15.8786 8.29963C15.8786 8.29963 15.8786 8.29963 15.8786 8.29963C15.8787 8.29963 15.8787 8.29963 15.8787 8.29963C15.8787 8.29963 15.8787 8.29963 15.8788 8.29963C15.8788 8.29963 15.8788 8.29963 15.8788 8.29963C15.8789 8.29963 15.8789 8.29963 15.8789 8.29963C15.8789 8.29963 15.879 8.29963 15.879 8.29963C15.879 8.29963 15.879 8.29963 15.8791 8.29963C15.8791 8.29963 15.8791 8.29963 15.8791 8.29963C15.8792 8.29963 15.8792 8.29963 15.8792 8.29963C15.8792 8.29963 15.8793 8.29963 15.8793 8.29963C15.8793 8.29963 15.8793 8.29963 15.8794 8.29963C15.8794 8.29963 15.8794 8.29963 15.8794 8.29963C15.8795 8.29963 15.8795 8.29963 15.8795 8.29963C15.8795 8.29963 15.8795 8.29963 15.8796 8.29963C15.8796 8.29963 15.8796 8.29963 15.8796 8.29963C15.8797 8.29963 15.8797 8.29963 15.8797 8.29963C15.8797 8.29963 15.8798 8.29963 15.8798 8.29963C15.8798 8.29963 15.8798 8.29963 15.8799 8.29963C15.8799 8.29963 15.8799 8.29963 15.8799 8.29963C15.88 8.29963 15.88 8.29963 15.88 8.29963C15.88 8.29963 15.8801 8.29963 15.8801 8.29963C15.8801 8.29963 15.8801 8.29963 15.8801 8.29963C15.8802 8.29963 15.8802 8.29963 15.8802 8.29963C15.8802 8.29963 15.8803 8.29963 15.8803 8.29963C15.8803 8.29963 15.8803 8.29963 15.8804 8.29963C15.8804 8.29963 15.8804 8.29963 15.8804 8.29963C15.8805 8.29963 15.8805 8.29963 15.8805 8.29963C15.8805 8.29963 15.8806 8.29963 15.8806 8.29963C15.8806 8.29963 15.8806 8.29963 15.8807 8.29963C15.8807 8.29963 15.8807 8.29963 15.8807 8.29963C15.8808 8.29963 15.8808 8.29963 15.8808 8.29963C15.8808 8.29963 15.8808 8.29963 15.8809 8.29963C15.8809 8.29963 15.8809 8.29963 15.8809 8.29963C15.881 8.29963 15.881 8.29963 15.881 8.29963C15.881 8.29963 15.8811 8.29963 15.8811 8.29963C15.8811 8.29963 15.8811 8.29963 15.8812 8.29963C15.8812 8.29963 15.8812 8.29963 15.8812 8.29963C15.8813 8.29963 15.8813 8.29963 15.8813 8.29963C15.8813 8.29963 15.8813 8.29963 15.8814 8.29963C15.8814 8.29963 15.8814 8.29963 15.8814 8.29963C15.8815 8.29963 15.8815 8.29963 15.8815 8.29963C15.8815 8.29963 15.8816 8.29963 15.8816 8.29963C15.8816 8.29963 15.8816 8.29963 15.8817 8.29963C15.8817 8.29963 15.8817 8.29963 15.8817 8.29963C15.8818 8.29963 15.8818 8.29963 15.8818 8.29963C15.8818 8.29963 15.8819 8.29963 15.8819 8.29963C15.8819 8.29963 15.8819 8.29963 15.8819 8.29963C15.882 8.29963 15.882 8.29963 15.882 8.29963C15.882 8.29963 15.8821 8.29963 15.8821 8.29963C15.8821 8.29963 15.8821 8.29963 15.8822 8.29963C15.8822 8.29963 15.8822 8.29963 15.8822 8.29963C15.8823 8.29963 15.8823 8.29963 15.8823 8.29963C15.8823 8.29963 15.8824 8.29963 15.8824 8.29963C15.8824 8.29963 15.8824 8.29963 15.8824 8.29963C15.8825 8.29963 15.8825 8.29963 15.8825 8.29963C15.8825 8.29963 15.8826 8.29963 15.8826 8.29963C15.8826 8.29963 15.8826 8.29963 15.8827 8.29963C15.8827 8.29963 15.8827 8.29963 15.8827 8.29963C15.8828 8.29963 15.8828 8.29963 15.8828 8.29963C15.8828 8.29963 15.8829 8.29963 15.8829 8.29963C15.8829 8.29963 15.8829 8.29963 15.8829 8.29963C15.883 8.29963 15.883 8.29963 15.883 8.29963C15.883 8.29963 15.8831 8.29963 15.8831 8.29963C15.8831 8.29963 15.8831 8.29963 15.8832 8.29963C15.8832 8.29963 15.8832 8.29963 15.8832 8.29963C15.8833 8.29963 15.8833 8.29963 15.8833 8.29963C15.8833 8.29963 15.8834 8.29963 15.8834 8.29963C15.8834 8.29963 15.8834 8.29963 15.8834 8.29963C15.8835 8.29963 15.8835 8.29963 15.8835 8.29963C15.8835 8.29963 15.8836 8.29963 15.8836 8.29963C15.8836 8.29963 15.8836 8.29963 15.8837 8.29963C15.8837 8.29963 15.8837 8.29963 15.8837 8.29963C15.8838 8.29963 15.8838 8.29963 15.8838 8.29963C15.8838 8.29963 15.8838 8.29963 15.8839 8.29963C15.8839 8.29963 15.8839 8.29963 15.8839 8.29963C15.884 8.29963 15.884 8.29963 15.884 8.29963C15.884 8.29963 15.8841 8.29963 15.8841 8.29963C15.8841 8.29963 15.8841 8.29963 15.8842 8.29963C15.8842 8.29963 15.8842 8.29963 15.8842 8.29963C15.8843 8.29963 15.8843 8.29963 15.8843 8.29963C15.8843 8.29963 15.8843 8.29963 15.8844 8.29963C15.8844 8.29963 15.8844 8.29963 15.8844 8.29963C15.8845 8.29963 15.8845 8.29963 15.8845 8.29963C15.8845 8.29963 15.8846 8.29963 15.8846 8.29963C15.8846 8.29963 15.8846 8.29963 15.8847 8.29963C15.8847 8.29963 15.8847 8.29963 15.8847 8.29963C15.8847 8.29963 15.8848 8.29963 15.8848 8.29963C15.8848 8.29963 15.8848 8.29963 15.8849 8.29963C15.8849 8.29963 15.8849 8.29963 15.8849 8.29963C15.885 8.29963 15.885 8.29963 15.885 8.29963C15.885 8.29963 15.8851 8.29963 15.8851 8.29963C15.8851 8.29963 15.8851 8.29963 15.8851 8.29963C15.8852 8.29963 15.8852 8.29963 15.8852 8.29963C15.8852 8.29963 15.8853 8.29963 15.8853 8.29963C15.8853 8.29963 15.8853 8.29963 15.8854 8.29963C15.8854 8.29963 15.8854 8.29963 15.8854 8.29963C15.8855 8.29963 15.8855 8.29963 15.8855 8.29963C15.8855 8.29963 15.8855 8.29963 15.8856 8.29963C15.8856 8.29963 15.8856 8.29963 15.8856 8.29963C15.8857 8.29963 15.8857 8.29963 15.8857 8.29963C15.8857 8.29963 15.8858 8.29963 15.8858 8.29963C15.8858 8.29963 15.8858 8.29963 15.8859 8.29963C15.8859 8.29963 15.8859 8.29963 15.8859 8.29963C15.8859 8.29963 15.886 8.29963 15.886 8.29963V8.69963C15.886 8.69963 15.8859 8.69963 15.8859 8.69963C15.8859 8.69963 15.8859 8.69963 15.8859 8.69963C15.8858 8.69963 15.8858 8.69963 15.8858 8.69963C15.8858 8.69963 15.8857 8.69963 15.8857 8.69963C15.8857 8.69963 15.8857 8.69963 15.8856 8.69963C15.8856 8.69963 15.8856 8.69963 15.8856 8.69963C15.8855 8.69963 15.8855 8.69963 15.8855 8.69963C15.8855 8.69963 15.8855 8.69963 15.8854 8.69963C15.8854 8.69963 15.8854 8.69963 15.8854 8.69963C15.8853 8.69963 15.8853 8.69963 15.8853 8.69963C15.8853 8.69963 15.8852 8.69963 15.8852 8.69963C15.8852 8.69963 15.8852 8.69963 15.8851 8.69963C15.8851 8.69963 15.8851 8.69963 15.8851 8.69963C15.8851 8.69963 15.885 8.69963 15.885 8.69963C15.885 8.69963 15.885 8.69963 15.8849 8.69963C15.8849 8.69963 15.8849 8.69963 15.8849 8.69963C15.8848 8.69963 15.8848 8.69963 15.8848 8.69963C15.8848 8.69963 15.8847 8.69963 15.8847 8.69963C15.8847 8.69963 15.8847 8.69963 15.8847 8.69963C15.8846 8.69963 15.8846 8.69963 15.8846 8.69963C15.8846 8.69963 15.8845 8.69963 15.8845 8.69963C15.8845 8.69963 15.8845 8.69963 15.8844 8.69963C15.8844 8.69963 15.8844 8.69963 15.8844 8.69963C15.8843 8.69963 15.8843 8.69963 15.8843 8.69963C15.8843 8.69963 15.8843 8.69963 15.8842 8.69963C15.8842 8.69963 15.8842 8.69963 15.8842 8.69963C15.8841 8.69963 15.8841 8.69963 15.8841 8.69963C15.8841 8.69963 15.884 8.69963 15.884 8.69963C15.884 8.69963 15.884 8.69963 15.8839 8.69963C15.8839 8.69963 15.8839 8.69963 15.8839 8.69963C15.8838 8.69963 15.8838 8.69963 15.8838 8.69963C15.8838 8.69963 15.8838 8.69963 15.8837 8.69963C15.8837 8.69963 15.8837 8.69963 15.8837 8.69963C15.8836 8.69963 15.8836 8.69963 15.8836 8.69963C15.8836 8.69963 15.8835 8.69963 15.8835 8.69963C15.8835 8.69963 15.8835 8.69963 15.8834 8.69963C15.8834 8.69963 15.8834 8.69963 15.8834 8.69963C15.8834 8.69963 15.8833 8.69963 15.8833 8.69963C15.8833 8.69963 15.8833 8.69963 15.8832 8.69963C15.8832 8.69963 15.8832 8.69963 15.8832 8.69963C15.8831 8.69963 15.8831 8.69963 15.8831 8.69963C15.8831 8.69963 15.883 8.69963 15.883 8.69963C15.883 8.69963 15.883 8.69963 15.8829 8.69963C15.8829 8.69963 15.8829 8.69963 15.8829 8.69963C15.8829 8.69963 15.8828 8.69963 15.8828 8.69963C15.8828 8.69963 15.8828 8.69963 15.8827 8.69963C15.8827 8.69963 15.8827 8.69963 15.8827 8.69963C15.8826 8.69963 15.8826 8.69963 15.8826 8.69963C15.8826 8.69963 15.8825 8.69963 15.8825 8.69963C15.8825 8.69963 15.8825 8.69963 15.8824 8.69963C15.8824 8.69963 15.8824 8.69963 15.8824 8.69963C15.8824 8.69963 15.8823 8.69963 15.8823 8.69963C15.8823 8.69963 15.8823 8.69963 15.8822 8.69963C15.8822 8.69963 15.8822 8.69963 15.8822 8.69963C15.8821 8.69963 15.8821 8.69963 15.8821 8.69963C15.8821 8.69963 15.882 8.69963 15.882 8.69963C15.882 8.69963 15.882 8.69963 15.8819 8.69963C15.8819 8.69963 15.8819 8.69963 15.8819 8.69963C15.8819 8.69963 15.8818 8.69963 15.8818 8.69963C15.8818 8.69963 15.8818 8.69963 15.8817 8.69963C15.8817 8.69963 15.8817 8.69963 15.8817 8.69963C15.8816 8.69963 15.8816 8.69963 15.8816 8.69963C15.8816 8.69963 15.8815 8.69963 15.8815 8.69963C15.8815 8.69963 15.8815 8.69963 15.8814 8.69963C15.8814 8.69963 15.8814 8.69963 15.8814 8.69963C15.8813 8.69963 15.8813 8.69963 15.8813 8.69963C15.8813 8.69963 15.8813 8.69963 15.8812 8.69963C15.8812 8.69963 15.8812 8.69963 15.8812 8.69963C15.8811 8.69963 15.8811 8.69963 15.8811 8.69963C15.8811 8.69963 15.881 8.69963 15.881 8.69963C15.881 8.69963 15.881 8.69963 15.8809 8.69963C15.8809 8.69963 15.8809 8.69963 15.8809 8.69963C15.8808 8.69963 15.8808 8.69963 15.8808 8.69963C15.8808 8.69963 15.8808 8.69963 15.8807 8.69963C15.8807 8.69963 15.8807 8.69963 15.8807 8.69963C15.8806 8.69963 15.8806 8.69963 15.8806 8.69963C15.8806 8.69963 15.8805 8.69963 15.8805 8.69963C15.8805 8.69963 15.8805 8.69963 15.8804 8.69963C15.8804 8.69963 15.8804 8.69963 15.8804 8.69963C15.8803 8.69963 15.8803 8.69963 15.8803 8.69963C15.8803 8.69963 15.8802 8.69963 15.8802 8.69963C15.8802 8.69963 15.8802 8.69963 15.8801 8.69963C15.8801 8.69963 15.8801 8.69963 15.8801 8.69963C15.8801 8.69963 15.88 8.69963 15.88 8.69963C15.88 8.69963 15.88 8.69963 15.8799 8.69963C15.8799 8.69963 15.8799 8.69963 15.8799 8.69963C15.8798 8.69963 15.8798 8.69963 15.8798 8.69963C15.8798 8.69963 15.8797 8.69963 15.8797 8.69963C15.8797 8.69963 15.8797 8.69963 15.8796 8.69963C15.8796 8.69963 15.8796 8.69963 15.8796 8.69963C15.8795 8.69963 15.8795 8.69963 15.8795 8.69963C15.8795 8.69963 15.8795 8.69963 15.8794 8.69963C15.8794 8.69963 15.8794 8.69963 15.8794 8.69963C15.8793 8.69963 15.8793 8.69963 15.8793 8.69963C15.8793 8.69963 15.8792 8.69963 15.8792 8.69963C15.8792 8.69963 15.8792 8.69963 15.8791 8.69963C15.8791 8.69963 15.8791 8.69963 15.8791 8.69963C15.879 8.69963 15.879 8.69963 15.879 8.69963C15.879 8.69963 15.8789 8.69963 15.8789 8.69963C15.8789 8.69963 15.8789 8.69963 15.8788 8.69963C15.8788 8.69963 15.8788 8.69963 15.8788 8.69963C15.8787 8.69963 15.8787 8.69963 15.8787 8.69963C15.8787 8.69963 15.8787 8.69963 15.8786 8.69963C15.8786 8.69963 15.8786 8.69963 15.8786 8.69963C15.8785 8.69963 15.8785 8.69963 15.8785 8.69963C15.8785 8.69963 15.8784 8.69963 15.8784 8.69963C15.8784 8.69963 15.8784 8.69963 15.8783 8.69963C15.8783 8.69963 15.8783 8.69963 15.8783 8.69963C15.8782 8.69963 15.8782 8.69963 15.8782 8.69963C15.8782 8.69963 15.8781 8.69963 15.8781 8.69963C15.8781 8.69963 15.8781 8.69963 15.878 8.69963C15.878 8.69963 15.878 8.69963 15.878 8.69963C15.8779 8.69963 15.8779 8.69963 15.8779 8.69963C15.8779 8.69963 15.8779 8.69963 15.8778 8.69963C15.8778 8.69963 15.8778 8.69963 15.8778 8.69963C15.8777 8.69963 15.8777 8.69963 15.8777 8.69963C15.8777 8.69963 15.8776 8.69963 15.8776 8.69963C15.8776 8.69963 15.8776 8.69963 15.8775 8.69963C15.8775 8.69963 15.8775 8.69963 15.8775 8.69963C15.8774 8.69963 15.8774 8.69963 15.8774 8.69963C15.8774 8.69963 15.8773 8.69963 15.8773 8.69963C15.8773 8.69963 15.8773 8.69963 15.8772 8.69963C15.8772 8.69963 15.8772 8.69963 15.8772 8.69963C15.8771 8.69963 15.8771 8.69963 15.8771 8.69963C15.8771 8.69963 15.877 8.69963 15.877 8.69963C15.877 8.69963 15.877 8.69963 15.877 8.69963C15.8769 8.69963 15.8769 8.69963 15.8769 8.69963C15.8769 8.69963 15.8768 8.69963 15.8768 8.69963C15.8768 8.69963 15.8768 8.69963 15.8767 8.69963C15.8767 8.69963 15.8767 8.69963 15.8767 8.69963C15.8766 8.69963 15.8766 8.69963 15.8766 8.69963C15.8766 8.69963 15.8765 8.69963 15.8765 8.69963C15.8765 8.69963 15.8765 8.69963 15.8764 8.69963C15.8764 8.69963 15.8764 8.69963 15.8764 8.69963C15.8763 8.69963 15.8763 8.69963 15.8763 8.69963C15.8763 8.69963 15.8762 8.69963 15.8762 8.69963C15.8762 8.69963 15.8762 8.69963 15.8761 8.69963C15.8761 8.69963 15.8761 8.69963 15.8761 8.69963C15.876 8.69963 15.876 8.69963 15.876 8.69963C15.876 8.69963 15.8759 8.69963 15.8759 8.69963C15.8759 8.69963 15.8759 8.69963 15.8759 8.69963C15.8758 8.69963 15.8758 8.69963 15.8758 8.69963C15.8758 8.69963 15.8757 8.69963 15.8757 8.69963C15.8757 8.69963 15.8757 8.69963 15.8756 8.69963C15.8756 8.69963 15.8756 8.69963 15.8756 8.69963C15.8755 8.69963 15.8755 8.69963 15.8755 8.69963C15.8755 8.69963 15.8754 8.69963 15.8754 8.69963C15.8754 8.69963 15.8754 8.69963 15.8753 8.69963C15.8753 8.69963 15.8753 8.69963 15.8753 8.69963C15.8752 8.69963 15.8752 8.69963 15.8752 8.69963C15.8752 8.69963 15.8751 8.69963 15.8751 8.69963C15.8751 8.69963 15.8751 8.69963 15.875 8.69963C15.875 8.69963 15.875 8.69963 15.875 8.69963C15.8749 8.69963 15.8749 8.69963 15.8749 8.69963C15.8749 8.69963 15.8748 8.69963 15.8748 8.69963C15.8748 8.69963 15.8748 8.69963 15.8747 8.69963C15.8747 8.69963 15.8747 8.69963 15.8747 8.69963C15.8746 8.69963 15.8746 8.69963 15.8746 8.69963C15.8746 8.69963 15.8745 8.69963 15.8745 8.69963C15.8745 8.69963 15.8745 8.69963 15.8744 8.69963C15.8744 8.69963 15.8744 8.69963 15.8744 8.69963C15.8744 8.69963 15.8743 8.69963 15.8743 8.69963C15.8743 8.69963 15.8743 8.69963 15.8742 8.69963C15.8742 8.69963 15.8742 8.69963 15.8742 8.69963C15.8741 8.69963 15.8741 8.69963 15.8741 8.69963C15.8741 8.69963 15.874 8.69963 15.874 8.69963C15.874 8.69963 15.874 8.69963 15.8739 8.69963C15.8739 8.69963 15.8739 8.69963 15.8739 8.69963C15.8738 8.69963 15.8738 8.69963 15.8738 8.69963C15.8738 8.69963 15.8737 8.69963 15.8737 8.69963C15.8737 8.69963 15.8737 8.69963 15.8736 8.69963C15.8736 8.69963 15.8736 8.69963 15.8736 8.69963C15.8735 8.69963 15.8735 8.69963 15.8735 8.69963C15.8735 8.69963 15.8734 8.69963 15.8734 8.69963C15.8734 8.69963 15.8734 8.69963 15.8733 8.69963C15.8733 8.69963 15.8733 8.69963 15.8733 8.69963C15.8732 8.69963 15.8732 8.69963 15.8732 8.69963C15.8732 8.69963 15.8731 8.69963 15.8731 8.69963C15.8731 8.69963 15.8731 8.69963 15.873 8.69963C15.873 8.69963 15.873 8.69963 15.873 8.69963C15.8729 8.69963 15.8729 8.69963 15.8729 8.69963C15.8729 8.69963 15.8728 8.69963 15.8728 8.69963C15.8728 8.69963 15.8728 8.69963 15.8727 8.69963C15.8727 8.69963 15.8727 8.69963 15.8727 8.69963C15.8726 8.69963 15.8726 8.69963 15.8726 8.69963C15.8726 8.69963 15.8725 8.69963 15.8725 8.69963C15.8725 8.69963 15.8725 8.69963 15.8724 8.69963C15.8724 8.69963 15.8724 8.69963 15.8724 8.69963C15.8723 8.69963 15.8723 8.69963 15.8723 8.69963C15.8723 8.69963 15.8722 8.69963 15.8722 8.69963C15.8722 8.69963 15.8722 8.69963 15.8721 8.69963C15.8721 8.69963 15.8721 8.69963 15.8721 8.69963C15.872 8.69963 15.872 8.69963 15.872 8.69963C15.872 8.69963 15.8719 8.69963 15.8719 8.69963C15.8719 8.69963 15.8719 8.69963 15.8718 8.69963C15.8718 8.69963 15.8718 8.69963 15.8718 8.69963C15.8717 8.69963 15.8717 8.69963 15.8717 8.69963C15.8717 8.69963 15.8716 8.69963 15.8716 8.69963C15.8716 8.69963 15.8716 8.69963 15.8715 8.69963C15.8715 8.69963 15.8715 8.69963 15.8715 8.69963C15.8714 8.69963 15.8714 8.69963 15.8714 8.69963C15.8714 8.69963 15.8713 8.69963 15.8713 8.69963C15.8713 8.69963 15.8713 8.69963 15.8712 8.69963C15.8712 8.69963 15.8712 8.69963 15.8712 8.69963C15.8711 8.69963 15.8711 8.69963 15.8711 8.69963C15.8711 8.69963 15.871 8.69963 15.871 8.69963C15.871 8.69963 15.871 8.69963 15.8709 8.69963C15.8709 8.69963 15.8709 8.69963 15.8709 8.69963C15.8708 8.69963 15.8708 8.69963 15.8708 8.69963C15.8708 8.69963 15.8707 8.69963 15.8707 8.69963C15.8707 8.69963 15.8707 8.69963 15.8706 8.69963C15.8706 8.69963 15.8706 8.69963 15.8706 8.69963C15.8705 8.69963 15.8705 8.69963 15.8705 8.69963C15.8705 8.69963 15.8704 8.69963 15.8704 8.69963C15.8704 8.69963 15.8704 8.69963 15.8703 8.69963C15.8703 8.69963 15.8703 8.69963 15.8703 8.69963C15.8702 8.69963 15.8702 8.69963 15.8702 8.69963C15.8702 8.69963 15.8701 8.69963 15.8701 8.69963C15.8701 8.69963 15.8701 8.69963 15.87 8.69963C15.87 8.69963 15.87 8.69963 15.87 8.69963C15.8699 8.69963 15.8699 8.69963 15.8699 8.69963C15.8699 8.69963 15.8698 8.69963 15.8698 8.69963C15.8698 8.69963 15.8698 8.69963 15.8697 8.69963C15.8697 8.69963 15.8697 8.69963 15.8697 8.69963C15.8696 8.69963 15.8696 8.69963 15.8696 8.69963C15.8696 8.69963 15.8695 8.69963 15.8695 8.69963C15.8695 8.69963 15.8695 8.69963 15.8694 8.69963C15.8694 8.69963 15.8694 8.69963 15.8694 8.69963C15.8693 8.69963 15.8693 8.69963 15.8693 8.69963C15.8693 8.69963 15.8692 8.69963 15.8692 8.69963C15.8692 8.69963 15.8692 8.69963 15.8691 8.69963C15.8691 8.69963 15.8691 8.69963 15.8691 8.69963C15.869 8.69963 15.869 8.69963 15.869 8.69963C15.869 8.69963 15.8689 8.69963 15.8689 8.69963C15.8689 8.69963 15.8689 8.69963 15.8688 8.69963C15.8688 8.69963 15.8688 8.69963 15.8688 8.69963C15.8687 8.69963 15.8687 8.69963 15.8687 8.69963C15.8687 8.69963 15.8686 8.69963 15.8686 8.69963C15.8686 8.69963 15.8686 8.69963 15.8685 8.69963C15.8685 8.69963 15.8685 8.69963 15.8685 8.69963C15.8684 8.69963 15.8684 8.69963 15.8684 8.69963C15.8684 8.69963 15.8683 8.69963 15.8683 8.69963C15.8683 8.69963 15.8683 8.69963 15.8682 8.69963C15.8682 8.69963 15.8682 8.69963 15.8682 8.69963C15.8681 8.69963 15.8681 8.69963 15.8681 8.69963C15.8681 8.69963 15.868 8.69963 15.868 8.69963C15.868 8.69963 15.868 8.69963 15.8679 8.69963C15.8679 8.69963 15.8679 8.69963 15.8679 8.69963C15.8678 8.69963 15.8678 8.69963 15.8678 8.69963C15.8677 8.69963 15.8677 8.69963 15.8677 8.69963C15.8677 8.69963 15.8676 8.69963 15.8676 8.69963C15.8676 8.69963 15.8676 8.69963 15.8675 8.69963C15.8675 8.69963 15.8675 8.69963 15.8675 8.69963C15.8674 8.69963 15.8674 8.69963 15.8674 8.69963C15.8674 8.69963 15.8673 8.69963 15.8673 8.69963C15.8673 8.69963 15.8673 8.69963 15.8672 8.69963C15.8672 8.69963 15.8672 8.69963 15.8672 8.69963C15.8671 8.69963 15.8671 8.69963 15.8671 8.69963C15.8671 8.69963 15.867 8.69963 15.867 8.69963C15.867 8.69963 15.867 8.69963 15.8669 8.69963C15.8669 8.69963 15.8669 8.69963 15.8669 8.69963C15.8668 8.69963 15.8668 8.69963 15.8668 8.69963C15.8668 8.69963 15.8667 8.69963 15.8667 8.69963C15.8667 8.69963 15.8667 8.69963 15.8666 8.69963C15.8666 8.69963 15.8666 8.69963 15.8666 8.69963C15.8665 8.69963 15.8665 8.69963 15.8665 8.69963C15.8665 8.69963 15.8664 8.69963 15.8664 8.69963C15.8664 8.69963 15.8664 8.69963 15.8663 8.69963C15.8663 8.69963 15.8663 8.69963 15.8662 8.69963C15.8662 8.69963 15.8662 8.69963 15.8662 8.69963C15.8661 8.69963 15.8661 8.69963 15.8661 8.69963C15.8661 8.69963 15.866 8.69963 15.866 8.69963C15.866 8.69963 15.866 8.69963 15.8659 8.69963C15.8659 8.69963 15.8659 8.69963 15.8659 8.69963C15.8658 8.69963 15.8658 8.69963 15.8658 8.69963C15.8658 8.69963 15.8657 8.69963 15.8657 8.69963C15.8657 8.69963 15.8657 8.69963 15.8656 8.69963C15.8656 8.69963 15.8656 8.69963 15.8656 8.69963C15.8655 8.69963 15.8655 8.69963 15.8655 8.69963C15.8655 8.69963 15.8654 8.69963 15.8654 8.69963C15.8654 8.69963 15.8654 8.69963 15.8653 8.69963C15.8653 8.69963 15.8653 8.69963 15.8653 8.69963C15.8652 8.69963 15.8652 8.69963 15.8652 8.69963C15.8652 8.69963 15.8651 8.69963 15.8651 8.69963C15.8651 8.69963 15.865 8.69963 15.865 8.69963C15.865 8.69963 15.865 8.69963 15.8649 8.69963C15.8649 8.69963 15.8649 8.69963 15.8649 8.69963C15.8648 8.69963 15.8648 8.69963 15.8648 8.69963C15.8648 8.69963 15.8647 8.69963 15.8647 8.69963C15.8647 8.69963 15.8647 8.69963 15.8646 8.69963C15.8646 8.69963 15.8646 8.69963 15.8646 8.69963C15.8645 8.69963 15.8645 8.69963 15.8645 8.69963C15.8645 8.69963 15.8644 8.69963 15.8644 8.69963C15.8644 8.69963 15.8644 8.69963 15.8643 8.69963C15.8643 8.69963 15.8643 8.69963 15.8643 8.69963C15.8642 8.69963 15.8642 8.69963 15.8642 8.69963C15.8642 8.69963 15.8641 8.69963 15.8641 8.69963C15.8641 8.69963 15.864 8.69963 15.864 8.69963C15.864 8.69963 15.864 8.69963 15.8639 8.69963C15.8639 8.69963 15.8639 8.69963 15.8639 8.69963C15.8638 8.69963 15.8638 8.69963 15.8638 8.69963C15.8638 8.69963 15.8637 8.69963 15.8637 8.69963C15.8637 8.69963 15.8637 8.69963 15.8636 8.69963C15.8636 8.69963 15.8636 8.69963 15.8636 8.69963C15.8635 8.69963 15.8635 8.69963 15.8635 8.69963C15.8635 8.69963 15.8634 8.69963 15.8634 8.69963C15.8634 8.69963 15.8634 8.69963 15.8633 8.69963C15.8633 8.69963 15.8633 8.69963 15.8632 8.69963C15.8632 8.69963 15.8632 8.69963 15.8632 8.69963C15.8631 8.69963 15.8631 8.69963 15.8631 8.69963C15.8631 8.69963 15.863 8.69963 15.863 8.69963C15.863 8.69963 15.863 8.69963 15.8629 8.69963C15.8629 8.69963 15.8629 8.69963 15.8629 8.69963C15.8628 8.69963 15.8628 8.69963 15.8628 8.69963C15.8628 8.69963 15.8627 8.69963 15.8627 8.69963C15.8627 8.69963 15.8627 8.69963 15.8626 8.69963C15.8626 8.69963 15.8626 8.69963 15.8626 8.69963C15.8625 8.69963 15.8625 8.69963 15.8625 8.69963C15.8624 8.69963 15.8624 8.69963 15.8624 8.69963C15.8624 8.69963 15.8623 8.69963 15.8623 8.69963C15.8623 8.69963 15.8623 8.69963 15.8622 8.69963C15.8622 8.69963 15.8622 8.69963 15.8622 8.69963C15.8621 8.69963 15.8621 8.69963 15.8621 8.69963C15.8621 8.69963 15.862 8.69963 15.862 8.69963C15.862 8.69963 15.862 8.69963 15.8619 8.69963C15.8619 8.69963 15.8619 8.69963 15.8619 8.69963C15.8618 8.69963 15.8618 8.69963 15.8618 8.69963C15.8617 8.69963 15.8617 8.69963 15.8617 8.69963C15.8617 8.69963 15.8616 8.69963 15.8616 8.69963C15.8616 8.69963 15.8616 8.69963 15.8615 8.69963C15.8615 8.69963 15.8615 8.69963 15.8615 8.69963C15.8614 8.69963 15.8614 8.69963 15.8614 8.69963C15.8614 8.69963 15.8613 8.69963 15.8613 8.69963C15.8613 8.69963 15.8613 8.69963 15.8612 8.69963C15.8612 8.69963 15.8612 8.69963 15.8612 8.69963C15.8611 8.69963 15.8611 8.69963 15.8611 8.69963C15.861 8.69963 15.861 8.69963 15.861 8.69963C15.861 8.69963 15.8609 8.69963 15.8609 8.69963C15.8609 8.69963 15.8609 8.69963 15.8608 8.69963C15.8608 8.69963 15.8608 8.69963 15.8608 8.69963C15.8607 8.69963 15.8607 8.69963 15.8607 8.69963C15.8607 8.69963 15.8606 8.69963 15.8606 8.69963C15.8606 8.69963 15.8606 8.69963 15.8605 8.69963C15.8605 8.69963 15.8605 8.69963 15.8604 8.69963C15.8604 8.69963 15.8604 8.69963 15.8604 8.69963C15.8603 8.69963 15.8603 8.69963 15.8603 8.69963C15.8603 8.69963 15.8602 8.69963 15.8602 8.69963C15.8602 8.69963 15.8602 8.69963 15.8601 8.69963C15.8601 8.69963 15.8601 8.69963 15.8601 8.69963C15.86 8.69963 15.86 8.69963 15.86 8.69963C15.86 8.69963 15.8599 8.69963 15.8599 8.69963C15.8599 8.69963 15.8598 8.69963 15.8598 8.69963C15.8598 8.69963 15.8598 8.69963 15.8597 8.69963C15.8597 8.69963 15.8597 8.69963 15.8597 8.69963C15.8596 8.69963 15.8596 8.69963 15.8596 8.69963C15.8596 8.69963 15.8595 8.69963 15.8595 8.69963C15.8595 8.69963 15.8595 8.69963 15.8594 8.69963C15.8594 8.69963 15.8594 8.69963 15.8594 8.69963C15.8593 8.69963 15.8593 8.69963 15.8593 8.69963C15.8592 8.69963 15.8592 8.69963 15.8592 8.69963C15.8592 8.69963 15.8591 8.69963 15.8591 8.69963C15.8591 8.69963 15.8591 8.69963 15.859 8.69963C15.859 8.69963 15.859 8.69963 15.859 8.69963C15.8589 8.69963 15.8589 8.69963 15.8589 8.69963C15.8589 8.69963 15.8588 8.69963 15.8588 8.69963C15.8588 8.69963 15.8587 8.69963 15.8587 8.69963C15.8587 8.69963 15.8587 8.69963 15.8586 8.69963C15.8586 8.69963 15.8586 8.69963 15.8586 8.69963C15.8585 8.69963 15.8585 8.69963 15.8585 8.69963C15.8585 8.69963 15.8584 8.69963 15.8584 8.69963C15.8584 8.69963 15.8584 8.69963 15.8583 8.69963C15.8583 8.69963 15.8583 8.69963 15.8583 8.69963C15.8582 8.69963 15.8582 8.69963 15.8582 8.69963C15.8581 8.69963 15.8581 8.69963 15.8581 8.69963C15.8581 8.69963 15.858 8.69963 15.858 8.69963C15.858 8.69963 15.858 8.69963 15.8579 8.69963C15.8579 8.69963 15.8579 8.69963 15.8579 8.69963C15.8578 8.69963 15.8578 8.69963 15.8578 8.69963C15.8578 8.69963 15.8577 8.69963 15.8577 8.69963C15.8577 8.69963 15.8576 8.69963 15.8576 8.69963C15.8576 8.69963 15.8576 8.69963 15.8575 8.69963C15.8575 8.69963 15.8575 8.69963 15.8575 8.69963C15.8574 8.69963 15.8574 8.69963 15.8574 8.69963C15.8574 8.69963 15.8573 8.69963 15.8573 8.69963C15.8573 8.69963 15.8573 8.69963 15.8572 8.69963C15.8572 8.69963 15.8572 8.69963 15.8571 8.69963C15.8571 8.69963 15.8571 8.69963 15.8571 8.69963C15.857 8.69963 15.857 8.69963 15.857 8.69963C15.857 8.69963 15.8569 8.69963 15.8569 8.69963C15.8569 8.69963 15.8569 8.69963 15.8568 8.69963C15.8568 8.69963 15.8568 8.69963 15.8567 8.69963C15.8567 8.69963 15.8567 8.69963 15.8567 8.69963C15.8566 8.69963 15.8566 8.69963 15.8566 8.69963C15.8566 8.69963 15.8565 8.69963 15.8565 8.69963C15.8565 8.69963 15.8565 8.69963 15.8564 8.69963C15.8564 8.69963 15.8564 8.69963 15.8564 8.69963C15.8563 8.69963 15.8563 8.69963 15.8563 8.69963C15.8562 8.69963 15.8562 8.69963 15.8562 8.69963C15.8562 8.69963 15.8561 8.69963 15.8561 8.69963C15.8561 8.69963 15.8561 8.69963 15.856 8.69963C15.856 8.69963 15.856 8.69963 15.856 8.69963C15.8559 8.69963 15.8559 8.69963 15.8559 8.69963C15.8558 8.69963 15.8558 8.69963 15.8558 8.69963C15.8558 8.69963 15.8557 8.69963 15.8557 8.69963C15.8557 8.69963 15.8557 8.69963 15.8556 8.69963C15.8556 8.69963 15.8556 8.69963 15.8556 8.69963C15.8555 8.69963 15.8555 8.69963 15.8555 8.69963C15.8555 8.69963 15.8554 8.69963 15.8554 8.69963C15.8554 8.69963 15.8553 8.69963 15.8553 8.69963C15.8553 8.69963 15.8553 8.69963 15.8552 8.69963C15.8552 8.69963 15.8552 8.69963 15.8552 8.69963C15.8551 8.69963 15.8551 8.69963 15.8551 8.69963C15.8551 8.69963 15.855 8.69963 15.855 8.69963C15.855 8.69963 15.8549 8.69963 15.8549 8.69963C15.8549 8.69963 15.8549 8.69963 15.8548 8.69963C15.8548 8.69963 15.8548 8.69963 15.8548 8.69963C15.8547 8.69963 15.8547 8.69963 15.8547 8.69963C15.8547 8.69963 15.8546 8.69963 15.8546 8.69963C15.8546 8.69963 15.8545 8.69963 15.8545 8.69963C15.8545 8.69963 15.8545 8.69963 15.8544 8.69963C15.8544 8.69963 15.8544 8.69963 15.8544 8.69963C15.8543 8.69963 15.8543 8.69963 15.8543 8.69963C15.8543 8.69963 15.8542 8.69963 15.8542 8.69963C15.8542 8.69963 15.8541 8.69963 15.8541 8.69963C15.8541 8.69963 15.8541 8.69963 15.854 8.69963C15.854 8.69963 15.854 8.69963 15.854 8.69963C15.8539 8.69963 15.8539 8.69963 15.8539 8.69963C15.8539 8.69963 15.8538 8.69963 15.8538 8.69963C15.8538 8.69963 15.8537 8.69963 15.8537 8.69963C15.8537 8.69963 15.8537 8.69963 15.8536 8.69963C15.8536 8.69963 15.8536 8.69963 15.8536 8.69963C15.8535 8.69963 15.8535 8.69963 15.8535 8.69963C15.8535 8.69963 15.8534 8.69963 15.8534 8.69963C15.8534 8.69963 15.8533 8.69963 15.8533 8.69963C15.8533 8.69963 15.8533 8.69963 15.8532 8.69963C15.8532 8.69963 15.8532 8.69963 15.8532 8.69963C15.8531 8.69963 15.8531 8.69963 15.8531 8.69963C15.8531 8.69963 15.853 8.69963 15.853 8.69963C15.853 8.69963 15.8529 8.69963 15.8529 8.69963C15.8529 8.69963 15.8529 8.69963 15.8528 8.69963C15.8528 8.69963 15.8528 8.69963 15.8528 8.69963C15.8527 8.69963 15.8527 8.69963 15.8527 8.69963C15.8526 8.69963 15.8526 8.69963 15.8526 8.69963C15.8526 8.69963 15.8525 8.69963 15.8525 8.69963C15.8525 8.69963 15.8525 8.69963 15.8524 8.69963C15.8524 8.69963 15.8524 8.69963 15.8524 8.69963C15.8523 8.69963 15.8523 8.69963 15.8523 8.69963C15.8522 8.69963 15.8522 8.69963 15.8522 8.69963C15.8522 8.69963 15.8521 8.69963 15.8521 8.69963C15.8521 8.69963 15.8521 8.69963 15.852 8.69963C15.852 8.69963 15.852 8.69963 15.852 8.69963C15.8519 8.69963 15.8519 8.69963 15.8519 8.69963C15.8518 8.69963 15.8518 8.69963 15.8518 8.69963C15.8518 8.69963 15.8517 8.69963 15.8517 8.69963C15.8517 8.69963 15.8517 8.69963 15.8516 8.69963C15.8516 8.69963 15.8516 8.69963 15.8515 8.69963C15.8515 8.69963 15.8515 8.69963 15.8515 8.69963C15.8514 8.69963 15.8514 8.69963 15.8514 8.69963C15.8514 8.69963 15.8513 8.69963 15.8513 8.69963C15.8513 8.69963 15.8513 8.69963 15.8512 8.69963C15.8512 8.69963 15.8512 8.69963 15.8511 8.69963C15.8511 8.69963 15.8511 8.69963 15.8511 8.69963C15.851 8.69963 15.851 8.69963 15.851 8.69963C15.851 8.69963 15.8509 8.69963 15.8509 8.69963C15.8509 8.69963 15.8508 8.69963 15.8508 8.69963C15.8508 8.69963 15.8508 8.69963 15.8507 8.69963C15.8507 8.69963 15.8507 8.69963 15.8507 8.69963C15.8506 8.69963 15.8506 8.69963 15.8506 8.69963C15.8506 8.69963 15.8505 8.69963 15.8505 8.69963C15.8505 8.69963 15.8504 8.69963 15.8504 8.69963C15.8504 8.69963 15.8504 8.69963 15.8503 8.69963C15.8503 8.69963 15.8503 8.69963 15.8503 8.69963C15.8502 8.69963 15.8502 8.69963 15.8502 8.69963C15.8501 8.69963 15.8501 8.69963 15.8501 8.69963C15.8501 8.69963 15.85 8.69963 15.85 8.69963C15.85 8.69963 15.85 8.69963 15.8499 8.69963C15.8499 8.69963 15.8499 8.69963 15.8498 8.69963C15.8498 8.69963 15.8498 8.69963 15.8498 8.69963C15.8497 8.69963 15.8497 8.69963 15.8497 8.69963C15.8497 8.69963 15.8496 8.69963 15.8496 8.69963C15.8496 8.69963 15.8495 8.69963 15.8495 8.69963C15.8495 8.69963 15.8495 8.69963 15.8494 8.69963C15.8494 8.69963 15.8494 8.69963 15.8494 8.69963C15.8493 8.69963 15.8493 8.69963 15.8493 8.69963C15.8493 8.69963 15.8492 8.69963 15.8492 8.69963C15.8492 8.69963 15.8491 8.69963 15.8491 8.69963C15.8491 8.69963 15.8491 8.69963 15.849 8.69963C15.849 8.69963 15.849 8.69963 15.849 8.69963C15.8489 8.69963 15.8489 8.69963 15.8489 8.69963C15.8488 8.69963 15.8488 8.69963 15.8488 8.69963C15.8488 8.69963 15.8487 8.69963 15.8487 8.69963C15.8487 8.69963 15.8487 8.69963 15.8486 8.69963C15.8486 8.69963 15.8486 8.69963 15.8485 8.69963C15.8485 8.69963 15.8485 8.69963 15.8485 8.69963C15.8484 8.69963 15.8484 8.69963 15.8484 8.69963C15.8484 8.69963 15.8483 8.69963 15.8483 8.69963C15.8483 8.69963 15.8482 8.69963 15.8482 8.69963C15.8482 8.69963 15.8482 8.69963 15.8481 8.69963C15.8481 8.69963 15.8481 8.69963 15.8481 8.69963C15.848 8.69963 15.848 8.69963 15.848 8.69963C15.8479 8.69963 15.8479 8.69963 15.8479 8.69963C15.8479 8.69963 15.8478 8.69963 15.8478 8.69963C15.8478 8.69963 15.8478 8.69963 15.8477 8.69963C15.8477 8.69963 15.8477 8.69963 15.8476 8.69963C15.8476 8.69963 15.8476 8.69963 15.8476 8.69963C15.8475 8.69963 15.8475 8.69963 15.8475 8.69963C15.8475 8.69963 15.8474 8.69963 15.8474 8.69963C15.8474 8.69963 15.8473 8.69963 15.8473 8.69963C15.8473 8.69963 15.8473 8.69963 15.8472 8.69963C15.8472 8.69963 15.8472 8.69963 15.8472 8.69963C15.8471 8.69963 15.8471 8.69963 15.8471 8.69963C15.847 8.69963 15.847 8.69963 15.847 8.69963V8.29963ZM15.888 8.29964C15.9377 8.30015 16.0029 8.3009 16.0573 8.30152C16.0846 8.30183 16.1091 8.30212 16.1278 8.30232C16.1371 8.30242 16.1449 8.3025 16.1508 8.30255C16.1538 8.30258 16.1562 8.3026 16.158 8.30262C16.1589 8.30262 16.1596 8.30263 16.1602 8.30263C16.1608 8.30263 16.161 8.30263 16.161 8.30263V8.70263C16.1447 8.70263 15.9809 8.7006 15.884 8.69962L15.888 8.29964ZM16.161 8.30263C16.5327 8.30263 17.2738 8.35467 18.0707 8.70561L17.9095 9.07169C17.1804 8.7506 16.4994 8.70263 16.161 8.70263V8.30263ZM18.0705 8.70555C18.5281 8.90657 18.9395 9.17823 19.2946 9.51445L19.0196 9.80492C18.6988 9.50112 18.3261 9.25475 17.9096 9.07176L18.0705 8.70555ZM19.2947 9.51454C19.7182 9.91589 20.0609 10.408 20.3148 10.9762L19.9496 11.1394C19.7155 10.6155 19.4022 10.1675 19.0196 9.80484L19.2947 9.51454ZM20.3147 10.976C20.5105 11.4128 20.5792 11.9821 20.5944 12.5605C20.6097 13.1428 20.5707 13.7591 20.5368 14.2984L20.1376 14.2734C20.1717 13.7307 20.2092 13.1324 20.1945 12.5709C20.1797 12.0055 20.1119 11.5017 19.9497 11.1395L20.3147 10.976ZM20.5372 14.2859V14.2879H20.1372V14.2859H20.5372ZM20.5368 14.3C20.5296 14.4194 20.522 14.535 20.5148 14.6548L20.1156 14.6311C20.1224 14.5148 20.1308 14.3884 20.1376 14.2759L20.5368 14.3ZM20.3961 14.46C20.4238 14.4723 20.4813 14.4919 20.5772 14.4919V14.8919C20.4231 14.8919 20.3106 14.8596 20.2343 14.8258L20.3961 14.46ZM20.5772 14.4919C20.7394 14.4919 20.9495 14.4397 21.2054 14.3198L21.3751 14.682C21.089 14.8161 20.819 14.8919 20.5772 14.8919V14.4919ZM21.2063 14.3194C21.3156 14.2688 21.4357 14.2449 21.5613 14.2449V14.6449C21.4868 14.6449 21.4249 14.659 21.3742 14.6824L21.2063 14.3194ZM21.5613 14.2449C21.7593 14.2449 21.9653 14.3022 22.1421 14.4068L21.9384 14.751C21.8212 14.6817 21.6852 14.6449 21.5613 14.6449V14.2449ZM22.1414 14.4064C22.3641 14.5369 22.5292 14.7333 22.5757 14.974L22.1829 15.0498C22.1634 14.9486 22.0885 14.839 21.9392 14.7515L22.1414 14.4064ZM22.5759 14.9751C22.6074 15.1431 22.5937 15.4404 22.286 15.7208L22.0166 15.4251C22.2049 15.2536 22.1932 15.1048 22.1827 15.0488L22.5759 14.9751ZM22.2855 15.7212C22.1242 15.8672 21.9003 15.9931 21.6285 16.1001L21.482 15.7279C21.7283 15.6309 21.9043 15.5267 22.0171 15.4247L22.2855 15.7212ZM21.6291 16.0999C21.5528 16.1302 21.4631 16.1578 21.3818 16.1836L21.2607 15.8024C21.3494 15.7742 21.4217 15.7518 21.4815 15.7281L21.6291 16.0999ZM21.3818 16.1836C21.2312 16.2314 21.0599 16.2861 20.9122 16.3596C20.7576 16.4364 20.6723 16.5133 20.6431 16.5815L20.2753 16.4245C20.3631 16.2187 20.5608 16.0876 20.734 16.0014C20.9141 15.9119 21.1153 15.8485 21.2607 15.8024L21.3818 16.1836ZM20.6433 16.5812C20.6182 16.6402 20.6151 16.756 20.7147 16.9589L20.3557 17.1352C20.2373 16.894 20.1822 16.6438 20.2751 16.4249L20.6433 16.5812ZM20.7141 16.9576C20.7157 16.9609 20.7256 16.9799 20.7329 17.0018L20.3535 17.1283C20.3555 17.1344 20.3574 17.1385 20.3578 17.1394C20.3581 17.14 20.3581 17.14 20.3563 17.1365L20.7141 16.9576ZM20.7264 16.9849C20.7506 17.04 20.9961 17.5948 21.5008 18.1805L21.1977 18.4416C20.6563 17.8133 20.3919 17.2181 20.36 17.1452L20.7264 16.9849ZM21.5008 18.1806C21.7866 18.5126 22.0993 18.7884 22.4295 19.001L22.213 19.3373C21.8472 19.1018 21.5059 18.7996 21.1977 18.4416L21.5008 18.1806ZM22.4297 19.001C22.8323 19.2606 23.2656 19.4284 23.7188 19.5028L23.6539 19.8975C23.1451 19.8139 22.6603 19.6256 22.2129 19.3372L22.4297 19.001ZM23.7187 19.5028C24.0083 19.5503 24.216 19.8081 24.199 20.1017L23.7997 20.0787C23.8048 19.9902 23.7424 19.912 23.654 19.8975L23.7187 19.5028ZM24.1991 20.1011C24.1948 20.1804 24.176 20.2586 24.1438 20.3328L23.7769 20.1736C23.7907 20.1418 23.798 20.11 23.7997 20.0793L24.1991 20.1011ZM24.1604 20.2532V20.2542H23.7604V20.2532H24.1604ZM24.1441 20.3332C24.0385 20.5787 23.8084 20.7574 23.5022 20.8988L23.3345 20.5356C23.6043 20.411 23.7283 20.2877 23.7766 20.1752L24.1441 20.3332ZM23.5024 20.8987C23.1251 21.0734 22.5775 21.2138 21.8841 21.3218L21.8225 20.9266C22.5031 20.8206 23.0075 20.687 23.3343 20.5357L23.5024 20.8987ZM22.03 21.2179C22.0301 21.2178 22.0287 21.2204 22.026 21.2271C22.0235 21.2334 22.0205 21.2417 22.0171 21.2522C22.0102 21.2733 22.0028 21.2992 21.9951 21.3288C21.9797 21.3882 21.9653 21.4539 21.9525 21.5114L21.562 21.425C21.5743 21.3695 21.5903 21.2962 21.6079 21.2284C21.6239 21.1669 21.6465 21.0872 21.6766 21.0305L22.03 21.2179ZM21.9527 21.5106C21.9269 21.63 21.8984 21.7611 21.8569 21.9003L21.4736 21.7862C21.5101 21.6635 21.5357 21.5465 21.5618 21.4259L21.9527 21.5106ZM21.8571 21.9C21.8295 21.993 21.7768 22.1084 21.6732 22.2014C21.5658 22.2978 21.4199 22.3553 21.2362 22.3553V21.9553C21.3316 21.9553 21.3792 21.9277 21.406 21.9037C21.4367 21.8761 21.459 21.8356 21.4735 21.7865L21.8571 21.9ZM21.2362 22.3553C21.1069 22.3553 20.9643 22.3263 20.8306 22.3007L20.9058 21.9078C21.0542 21.9362 21.1536 21.9553 21.2362 21.9553V22.3553ZM20.8301 22.3006C20.625 22.2608 20.3594 22.2093 20.0292 22.2093V21.8093C20.401 21.8093 20.6994 21.8678 20.9063 21.9079L20.8301 22.3006ZM20.0292 22.2093C19.8457 22.2093 19.6547 22.2253 19.4622 22.2575L19.3961 21.863C19.6096 21.8273 19.8227 21.8093 20.0292 21.8093V22.2093ZM19.4619 22.2576C19.1236 22.3137 18.8239 22.52 18.4234 22.8027L18.1928 22.4759C18.5743 22.2066 18.9507 21.9369 19.3964 21.863L19.4619 22.2576ZM18.4235 22.8027C17.8517 23.2065 17.1573 23.7003 16.098 23.7003V23.3003C17.0188 23.3003 17.6205 22.8801 18.1927 22.4759L18.4235 22.8027ZM16.098 23.7003C16.0661 23.7003 16.0341 23.6992 16.0022 23.6968L16.0318 23.2979C16.0539 23.2995 16.0759 23.3003 16.098 23.3003V23.7003ZM16.0295 23.6969C15.992 23.6993 15.9465 23.7003 15.902 23.7003V23.3003C15.9415 23.3003 15.978 23.2994 16.0045 23.2977L16.0295 23.6969ZM15.902 23.7003C14.8427 23.7003 14.1483 23.2065 13.5767 22.8038L13.8071 22.4768C14.3795 22.8801 14.9812 23.3003 15.902 23.3003V23.7003ZM13.5505 22.7818L13.5495 22.7808L13.8322 22.4978L13.8332 22.4988L13.5505 22.7818ZM13.5758 22.8029C13.1751 22.521 12.8755 22.3147 12.5371 22.2586L12.6026 21.864C13.0482 21.9379 13.4246 22.2075 13.8059 22.4757L13.5758 22.8029ZM12.5368 22.2585C12.3443 22.2263 12.1533 22.2103 11.9698 22.2103V21.8103C12.1763 21.8103 12.3894 21.8283 12.6029 21.864L12.5368 22.2585ZM11.9698 22.2103C11.652 22.2103 11.4001 22.2507 11.1689 22.2956L11.0927 21.9029C11.3354 21.8558 11.6156 21.8103 11.9698 21.8103V22.2103ZM11.1688 22.2956C11.0093 22.3265 10.8747 22.3443 10.7628 22.3443V21.9443C10.8368 21.9443 10.9423 21.932 11.0928 21.9029L11.1688 22.2956ZM10.7628 22.3443H10.7538V21.9443H10.7628V22.3443ZM10.7538 22.3443H10.7448V21.9443H10.7538V22.3443ZM10.7448 22.3443C10.6053 22.3443 10.4734 22.3055 10.3644 22.2241C10.2554 22.1427 10.1809 22.0272 10.1418 21.8934L10.5257 21.7811C10.5436 21.8423 10.5726 21.8804 10.6038 21.9037C10.635 21.927 10.6802 21.9443 10.7448 21.9443V22.3443ZM10.1419 21.8938C10.1017 21.7574 10.0734 21.6314 10.0464 21.5081L10.4371 21.4224C10.464 21.5451 10.4897 21.6591 10.5256 21.7807L10.1419 21.8938ZM10.0463 21.5077C10.0348 21.4548 10.0203 21.3893 10.0048 21.3295C9.99702 21.2997 9.98946 21.273 9.98241 21.2512C9.9789 21.2404 9.9758 21.2317 9.97318 21.2249C9.97189 21.2216 9.97084 21.2191 9.97004 21.2172C9.96922 21.2154 9.96884 21.2146 9.96893 21.2148L10.3245 21.0316C10.3532 21.0872 10.3759 21.1672 10.3919 21.2289C10.4097 21.2972 10.4256 21.3697 10.4372 21.4228L10.0463 21.5077ZM10.1157 21.3208C9.42272 21.2119 8.87495 21.0724 8.49761 20.8977L8.66569 20.5347C8.99238 20.686 9.49666 20.8186 10.1778 20.9257L10.1157 21.3208ZM8.49756 20.8977C8.1925 20.7563 7.96268 20.5777 7.85706 20.3336L8.22418 20.1748C8.27257 20.2866 8.39677 20.4101 8.66574 20.5347L8.49756 20.8977ZM7.85715 20.3338C7.82573 20.2614 7.80529 20.1831 7.8009 20.0997L8.20035 20.0787C8.20196 20.1093 8.20951 20.141 8.22409 20.1746L7.85715 20.3338ZM7.80096 20.1008C7.78399 19.8093 7.99167 19.5498 8.28228 19.5036L8.34499 19.8987C8.25758 19.9126 8.19525 19.9911 8.20028 20.0776L7.80096 20.1008Z" fill="black" mask="url(#path-2-inside-1_11_86)"/>
</g>
<defs>
<clipPath id="clip0_11_86">
<rect width="16" height="16" fill="white" transform="matrix(-1 0 0 1 24 8)"/>
</clipPath>
</defs>
</svg>
